<svg xmlns="http://www.w3.org/2000/svg" xmlns:xlink="http://www.w3.org/1999/xlink" zoomAndPan="magnify" preserveAspectRatio="xMidYMid meet" version="1.0" viewBox="156.61 151.85 63.04 70.12"><defs><clipPath id="id1"><path d="M 159 151.851562 L 219.648438 151.851562 L 219.648438 213 L 159 213 Z M 159 151.851562 " clip-rule="nonzero"/></clipPath></defs><path fill="rgb(97.648621%, 67.449951%, 81.17981%)" d="M 181.542969 199.855469 L 181.542969 217.132812 C 181.542969 218.519531 189.496094 223.101562 189.496094 221.714844 L 189.496094 204.4375 C 189.496094 205.820312 181.542969 201.242188 181.542969 199.855469 " fill-opacity="1" fill-rule="nonzero"/><path fill="rgb(99.21875%, 80.389404%, 88.62915%)" d="M 197.445312 199.855469 L 197.445312 217.132812 C 197.445312 218.519531 189.496094 223.101562 189.496094 221.714844 L 189.496094 204.4375 C 189.496094 205.820312 197.445312 201.242188 197.445312 199.855469 " fill-opacity="1" fill-rule="nonzero"/><path fill="rgb(99.21875%, 80.389404%, 88.62915%)" d="M 163.484375 192.007812 L 163.484375 206.074219 C 163.484375 207.460938 171.4375 212.042969 171.4375 210.65625 L 171.4375 196.585938 C 171.4375 197.972656 163.484375 193.394531 163.484375 192.007812 " fill-opacity="1" fill-rule="nonzero"/><path fill="rgb(60.389709%, 25.878906%, 42.749023%)" d="M 179.386719 192.007812 L 179.386719 206.074219 C 179.386719 207.460938 171.4375 212.042969 171.4375 210.65625 L 171.4375 196.585938 C 171.4375 197.972656 179.386719 193.394531 179.386719 192.007812 " fill-opacity="1" fill-rule="nonzero"/><path fill="rgb(60.389709%, 25.878906%, 42.749023%)" d="M 199.601562 192.316406 L 199.601562 206.386719 C 199.601562 207.773438 207.554688 212.351562 207.554688 210.96875 L 207.554688 196.898438 C 207.554688 198.285156 199.601562 193.703125 199.601562 192.316406 " fill-opacity="1" fill-rule="nonzero"/><path fill="rgb(99.21875%, 80.389404%, 88.62915%)" d="M 215.503906 192.316406 L 215.503906 206.386719 C 215.503906 207.773438 207.554688 212.351562 207.554688 210.96875 L 207.554688 196.898438 C 207.554688 198.285156 215.503906 193.703125 215.503906 192.316406 " fill-opacity="1" fill-rule="nonzero"/><g clip-path="url(#id1)"><path fill="rgb(99.21875%, 80.389404%, 88.62915%)" d="M 219.648438 182.003906 C 219.648438 198.65625 206.183594 212.15625 189.570312 212.15625 C 172.957031 212.15625 159.492188 198.65625 159.492188 182.003906 C 159.492188 165.351562 172.957031 151.851562 189.570312 151.851562 C 206.183594 151.851562 219.648438 165.351562 219.648438 182.003906 " fill-opacity="1" fill-rule="nonzero"/></g><path fill="rgb(97.648621%, 67.449951%, 81.17981%)" d="M 178.101562 187.699219 C 180.300781 196 177.433594 203.96875 171.703125 205.492188 C 165.96875 207.015625 159.542969 201.519531 157.347656 193.214844 C 155.148438 184.914062 158.015625 176.949219 163.746094 175.425781 C 169.480469 173.898438 175.90625 179.394531 178.101562 187.699219 " fill-opacity="1" fill-rule="nonzero"/><path fill="rgb(60.389709%, 25.878906%, 42.749023%)" d="M 175.082031 159.925781 C 175.855469 162.859375 176.898438 164.027344 173.417969 165.496094 C 171.488281 166.3125 167.746094 163.179688 167.746094 161.875 C 167.746094 158.839844 165.222656 157.757812 170.007812 155.585938 C 171.917969 154.722656 174.304688 156.992188 175.082031 159.925781 " fill-opacity="1" fill-rule="nonzero"/><path fill="rgb(97.648621%, 67.449951%, 81.17981%)" d="M 173.765625 160.789062 C 174.539062 163.726562 174.546875 165.351562 172.523438 165.890625 C 170.496094 166.429688 166.429688 164.042969 166.429688 162.742188 C 166.429688 159.707031 166.664062 156.992188 168.691406 156.453125 C 170.714844 155.914062 172.988281 157.855469 173.765625 160.789062 " fill-opacity="1" fill-rule="nonzero"/><path fill="rgb(60.389709%, 25.878906%, 42.749023%)" d="M 188.371094 167.398438 C 189.148438 170.332031 190.191406 171.5 186.710938 172.96875 C 184.777344 173.785156 181.035156 170.652344 181.035156 169.347656 C 181.035156 166.3125 178.515625 165.230469 183.296875 163.058594 C 185.207031 162.195312 187.597656 164.464844 188.371094 167.398438 " fill-opacity="1" fill-rule="nonzero"/><path fill="rgb(97.648621%, 67.449951%, 81.17981%)" d="M 187.054688 168.261719 C 187.832031 171.199219 187.839844 172.824219 185.8125 173.363281 C 183.785156 173.902344 179.71875 171.515625 179.71875 170.214844 C 179.71875 167.175781 179.957031 164.464844 181.980469 163.925781 C 184.007812 163.386719 186.277344 165.328125 187.054688 168.261719 " fill-opacity="1" fill-rule="nonzero"/><path fill="rgb(99.21875%, 80.389404%, 88.62915%)" d="M 173.695312 193.328125 C 173.960938 195.972656 172.691406 198.269531 170.867188 198.449219 C 169.039062 198.636719 167.34375 196.640625 167.082031 193.992188 C 166.816406 191.347656 168.082031 189.054688 169.910156 188.867188 C 171.734375 188.6875 173.429688 190.683594 173.695312 193.328125 " fill-opacity="1" fill-rule="nonzero"/><path fill="rgb(99.21875%, 80.389404%, 88.62915%)" d="M 165.289062 189.195312 C 165.554688 191.839844 164.285156 194.136719 162.460938 194.320312 C 160.632812 194.5 158.9375 192.503906 158.675781 189.859375 C 158.410156 187.214844 159.675781 184.921875 161.503906 184.738281 C 163.328125 184.554688 165.023438 186.550781 165.289062 189.195312 " fill-opacity="1" fill-rule="nonzero"/><path fill="rgb(60.389709%, 25.878906%, 42.749023%)" d="M 177.925781 174.140625 C 178.027344 175.140625 177.546875 176.011719 176.855469 176.078125 C 176.167969 176.148438 175.523438 175.394531 175.425781 174.394531 C 175.324219 173.394531 175.804688 172.523438 176.496094 172.457031 C 177.1875 172.386719 177.828125 173.140625 177.925781 174.140625 " fill-opacity="1" fill-rule="nonzero"/><path fill="rgb(60.389709%, 25.878906%, 42.749023%)" d="M 168.976562 168.945312 C 169.074219 169.949219 168.597656 170.816406 167.90625 170.882812 C 167.214844 170.953125 166.574219 170.199219 166.472656 169.199219 C 166.375 168.199219 166.851562 167.332031 167.542969 167.261719 C 168.234375 167.191406 168.875 167.945312 168.976562 168.945312 " fill-opacity="1" fill-rule="nonzero"/><path fill="rgb(29.019165%, 10.198975%, 18.429565%)" d="M 195.433594 155.363281 L 192.324219 153.558594 L 181.316406 159.980469 L 184.425781 161.785156 L 195.433594 155.363281 " fill-opacity="1" fill-rule="nonzero"/><path fill="rgb(60.389709%, 25.878906%, 42.749023%)" d="M 192.554688 155.164062 L 194.167969 156.101562 L 195.433594 155.363281 L 192.324219 153.558594 L 181.316406 159.980469 L 182.8125 160.847656 L 192.554688 155.164062 " fill-opacity="1" fill-rule="nonzero"/></svg>