<svg xmlns="http://www.w3.org/2000/svg" xmlns:xlink="http://www.w3.org/1999/xlink" zoomAndPan="magnify" preserveAspectRatio="xMidYMid meet" version="1.0" viewBox="60.09 151.85 255.97 70.12"><defs><g><g id="id1"/><g id="id2"/></g><clipPath id="id3"><path d="M 62 151.851562 L 123.128906 151.851562 L 123.128906 213 L 62 213 Z M 62 151.851562 " clip-rule="nonzero"/></clipPath></defs><path fill="rgb(99.21875%, 80.389404%, 88.62915%)" d="M 85.023438 199.855469 L 85.023438 217.132812 C 85.023438 218.519531 92.972656 223.101562 92.972656 221.714844 L 92.972656 204.4375 C 92.972656 205.820312 85.023438 201.242188 85.023438 199.855469 " fill-opacity="1" fill-rule="nonzero"/><path fill="rgb(97.648621%, 67.449951%, 81.17981%)" d="M 100.925781 199.855469 L 100.925781 217.132812 C 100.925781 218.519531 92.972656 223.101562 92.972656 221.714844 L 92.972656 204.4375 C 92.972656 205.820312 100.925781 201.242188 100.925781 199.855469 " fill-opacity="1" fill-rule="nonzero"/><path fill="rgb(97.648621%, 67.449951%, 81.17981%)" d="M 66.964844 192.007812 L 66.964844 206.074219 C 66.964844 207.460938 74.914062 212.042969 74.914062 210.65625 L 74.914062 196.585938 C 74.914062 197.972656 66.964844 193.394531 66.964844 192.007812 " fill-opacity="1" fill-rule="nonzero"/><path fill="rgb(60.389709%, 25.878906%, 42.749023%)" d="M 82.867188 192.007812 L 82.867188 206.074219 C 82.867188 207.460938 74.914062 212.042969 74.914062 210.65625 L 74.914062 196.585938 C 74.914062 197.972656 82.867188 193.394531 82.867188 192.007812 " fill-opacity="1" fill-rule="nonzero"/><path fill="rgb(60.389709%, 25.878906%, 42.749023%)" d="M 103.082031 192.316406 L 103.082031 206.386719 C 103.082031 207.773438 111.035156 212.351562 111.035156 210.96875 L 111.035156 196.898438 C 111.035156 198.285156 103.082031 193.703125 103.082031 192.316406 " fill-opacity="1" fill-rule="nonzero"/><path fill="rgb(97.648621%, 67.449951%, 81.17981%)" d="M 118.984375 192.316406 L 118.984375 206.386719 C 118.984375 207.773438 111.035156 212.351562 111.035156 210.96875 L 111.035156 196.898438 C 111.035156 198.285156 118.984375 193.703125 118.984375 192.316406 " fill-opacity="1" fill-rule="nonzero"/><g clip-path="url(#id3)"><path fill="rgb(97.648621%, 67.449951%, 81.17981%)" d="M 123.128906 182.003906 C 123.128906 198.65625 109.660156 212.15625 93.050781 212.15625 C 76.4375 212.15625 62.972656 198.65625 62.972656 182.003906 C 62.972656 165.351562 76.4375 151.851562 93.050781 151.851562 C 109.660156 151.851562 123.128906 165.351562 123.128906 182.003906 " fill-opacity="1" fill-rule="nonzero"/></g><path fill="rgb(99.21875%, 80.389404%, 88.62915%)" d="M 81.582031 187.699219 C 83.78125 196 80.914062 203.96875 75.179688 205.492188 C 69.449219 207.015625 63.023438 201.519531 60.824219 193.214844 C 58.628906 184.914062 61.496094 176.949219 67.226562 175.425781 C 72.957031 173.898438 79.386719 179.394531 81.582031 187.699219 " fill-opacity="1" fill-rule="nonzero"/><path fill="rgb(60.389709%, 25.878906%, 42.749023%)" d="M 78.558594 159.925781 C 79.335938 162.859375 80.378906 164.027344 76.898438 165.496094 C 74.964844 166.3125 71.222656 163.179688 71.222656 161.875 C 71.222656 158.839844 68.703125 157.757812 73.488281 155.585938 C 75.394531 154.722656 77.785156 156.992188 78.558594 159.925781 " fill-opacity="1" fill-rule="nonzero"/><path fill="rgb(99.21875%, 80.389404%, 88.62915%)" d="M 77.242188 160.789062 C 78.019531 163.726562 78.027344 165.351562 76 165.890625 C 73.976562 166.429688 69.90625 164.042969 69.90625 162.742188 C 69.90625 159.707031 70.144531 156.992188 72.171875 156.453125 C 74.195312 155.914062 76.46875 157.855469 77.242188 160.789062 " fill-opacity="1" fill-rule="nonzero"/><path fill="rgb(60.389709%, 25.878906%, 42.749023%)" d="M 91.851562 167.398438 C 92.628906 170.332031 93.671875 171.5 90.1875 172.96875 C 88.257812 173.785156 84.515625 170.652344 84.515625 169.347656 C 84.515625 166.3125 81.996094 165.230469 86.777344 163.058594 C 88.6875 162.195312 91.074219 164.464844 91.851562 167.398438 " fill-opacity="1" fill-rule="nonzero"/><path fill="rgb(99.21875%, 80.389404%, 88.62915%)" d="M 90.535156 168.261719 C 91.3125 171.199219 91.316406 172.824219 89.292969 173.363281 C 87.265625 173.902344 83.199219 171.515625 83.199219 170.214844 C 83.199219 167.175781 83.433594 164.464844 85.460938 163.925781 C 87.488281 163.386719 89.757812 165.328125 90.535156 168.261719 " fill-opacity="1" fill-rule="nonzero"/><path fill="rgb(97.648621%, 67.449951%, 81.17981%)" d="M 77.175781 193.328125 C 77.4375 195.972656 76.171875 198.269531 74.347656 198.449219 C 72.519531 198.636719 70.824219 196.640625 70.558594 193.992188 C 70.296875 191.347656 71.5625 189.054688 73.386719 188.867188 C 75.214844 188.6875 76.910156 190.683594 77.175781 193.328125 " fill-opacity="1" fill-rule="nonzero"/><path fill="rgb(97.648621%, 67.449951%, 81.17981%)" d="M 68.769531 189.195312 C 69.03125 191.839844 67.765625 194.136719 65.941406 194.320312 C 64.113281 194.5 62.417969 192.503906 62.152344 189.859375 C 61.890625 187.214844 63.15625 184.921875 64.980469 184.738281 C 66.808594 184.554688 68.503906 186.550781 68.769531 189.195312 " fill-opacity="1" fill-rule="nonzero"/><path fill="rgb(60.389709%, 25.878906%, 42.749023%)" d="M 81.40625 174.140625 C 81.503906 175.140625 81.027344 176.011719 80.335938 176.078125 C 79.644531 176.148438 79.003906 175.394531 78.90625 174.394531 C 78.804688 173.394531 79.285156 172.523438 79.972656 172.457031 C 80.664062 172.386719 81.304688 173.140625 81.40625 174.140625 " fill-opacity="1" fill-rule="nonzero"/><path fill="rgb(60.389709%, 25.878906%, 42.749023%)" d="M 72.453125 168.945312 C 72.554688 169.949219 72.074219 170.816406 71.386719 170.882812 C 70.695312 170.953125 70.054688 170.199219 69.953125 169.199219 C 69.851562 168.199219 70.332031 167.332031 71.023438 167.261719 C 71.714844 167.191406 72.355469 167.945312 72.453125 168.945312 " fill-opacity="1" fill-rule="nonzero"/><path fill="rgb(29.019165%, 10.198975%, 18.429565%)" d="M 98.910156 155.363281 L 95.804688 153.558594 L 84.796875 159.980469 L 87.90625 161.785156 L 98.910156 155.363281 " fill-opacity="1" fill-rule="nonzero"/><path fill="rgb(60.389709%, 25.878906%, 42.749023%)" d="M 96.03125 155.164062 L 97.648438 156.101562 L 98.910156 155.363281 L 95.804688 153.558594 L 84.796875 159.980469 L 86.289062 160.847656 L 96.03125 155.164062 " fill-opacity="1" fill-rule="nonzero"/><g fill="rgb(18.03894%, 18.03894%, 18.03894%)" fill-opacity="1"><g transform="translate(132.774399, 192.550007)"><g><path d="M 2 -22.859375 L 7.421875 -22.859375 L 9.9375 -9.5625 L 12.640625 -22.859375 L 17.859375 -22.859375 L 18.25 0 L 14.671875 0 L 14.25 -15.203125 L 11.59375 0 L 8.40625 0 L 5.59375 -15.328125 L 5.25 0 L 1.609375 0 Z M 2 -22.859375 "/></g></g></g><g fill="rgb(18.03894%, 18.03894%, 18.03894%)" fill-opacity="1"><g transform="translate(152.640437, 192.550007)"><g><path d="M 4.578125 -9.34375 L 0.21875 -22.859375 L 5 -22.859375 L 7.171875 -15.640625 L 9.109375 -22.859375 L 13.6875 -22.859375 L 9.421875 -9.34375 L 9.421875 0 L 4.578125 0 Z M 4.578125 -9.34375 "/></g></g></g><g fill="rgb(18.03894%, 18.03894%, 18.03894%)" fill-opacity="1"><g transform="translate(166.552309, 192.550007)"><g/></g></g><g fill="rgb(18.03894%, 18.03894%, 18.03894%)" fill-opacity="1"><g transform="translate(173.776323, 192.550007)"><g><path d="M 1.6875 -22.859375 L 9.375 -22.859375 C 11.382812 -22.859375 12.882812 -22.285156 13.875 -21.140625 C 14.875 -20.003906 15.375 -18.363281 15.375 -16.21875 C 15.375 -13.78125 14.796875 -12.082031 13.640625 -11.125 C 12.484375 -10.175781 10.863281 -9.703125 8.78125 -9.703125 L 6.75 -9.703125 L 6.75 0 L 1.6875 0 Z M 8.4375 -13.234375 C 9.320312 -13.234375 9.910156 -13.46875 10.203125 -13.9375 C 10.492188 -14.40625 10.640625 -15.195312 10.640625 -16.3125 C 10.640625 -17.320312 10.5 -18.070312 10.21875 -18.5625 C 9.9375 -19.050781 9.332031 -19.296875 8.40625 -19.296875 L 6.75 -19.296875 L 6.75 -13.234375 Z M 8.4375 -13.234375 "/></g></g></g><g fill="rgb(18.03894%, 18.03894%, 18.03894%)" fill-opacity="1"><g transform="translate(189.889259, 192.550007)"><g><path d="M 1.71875 -22.859375 L 6.765625 -22.859375 L 6.765625 0 L 1.71875 0 Z M 1.71875 -22.859375 "/></g></g></g><g fill="rgb(18.03894%, 18.03894%, 18.03894%)" fill-opacity="1"><g transform="translate(198.383121, 192.550007)"><g><path d="M 7.640625 0.34375 C 5.390625 0.34375 3.78125 -0.34375 2.8125 -1.71875 C 1.851562 -3.09375 1.375 -5.039062 1.375 -7.5625 L 1.375 -15.234375 C 1.375 -17.816406 1.894531 -19.785156 2.9375 -21.140625 C 3.988281 -22.492188 5.753906 -23.171875 8.234375 -23.171875 C 10.628906 -23.171875 12.34375 -22.585938 13.375 -21.421875 C 14.40625 -20.253906 14.921875 -18.609375 14.921875 -16.484375 L 14.921875 -15.015625 L 9.984375 -15.015625 L 9.984375 -16.875 C 9.984375 -17.78125 9.878906 -18.460938 9.671875 -18.921875 C 9.472656 -19.378906 9.015625 -19.609375 8.296875 -19.609375 C 7.566406 -19.609375 7.09375 -19.351562 6.875 -18.84375 C 6.65625 -18.34375 6.546875 -17.640625 6.546875 -16.734375 L 6.546875 -6.15625 C 6.546875 -5.25 6.679688 -4.535156 6.953125 -4.015625 C 7.222656 -3.503906 7.71875 -3.25 8.4375 -3.25 C 9.75 -3.25 10.40625 -4.234375 10.40625 -6.203125 L 10.40625 -8.890625 L 8.359375 -8.890625 L 8.359375 -11.859375 L 14.953125 -11.859375 L 14.953125 0 L 11.625 0 L 11.34375 -1.890625 C 10.625 -0.398438 9.390625 0.34375 7.640625 0.34375 Z M 7.640625 0.34375 "/></g></g></g><g fill="rgb(18.03894%, 18.03894%, 18.03894%)" fill-opacity="1"><g transform="translate(214.806467, 192.550007)"><g><path d="M 7.640625 0.34375 C 5.390625 0.34375 3.78125 -0.34375 2.8125 -1.71875 C 1.851562 -3.09375 1.375 -5.039062 1.375 -7.5625 L 1.375 -15.234375 C 1.375 -17.816406 1.894531 -19.785156 2.9375 -21.140625 C 3.988281 -22.492188 5.753906 -23.171875 8.234375 -23.171875 C 10.628906 -23.171875 12.34375 -22.585938 13.375 -21.421875 C 14.40625 -20.253906 14.921875 -18.609375 14.921875 -16.484375 L 14.921875 -15.015625 L 9.984375 -15.015625 L 9.984375 -16.875 C 9.984375 -17.78125 9.878906 -18.460938 9.671875 -18.921875 C 9.472656 -19.378906 9.015625 -19.609375 8.296875 -19.609375 C 7.566406 -19.609375 7.09375 -19.351562 6.875 -18.84375 C 6.65625 -18.34375 6.546875 -17.640625 6.546875 -16.734375 L 6.546875 -6.15625 C 6.546875 -5.25 6.679688 -4.535156 6.953125 -4.015625 C 7.222656 -3.503906 7.71875 -3.25 8.4375 -3.25 C 9.75 -3.25 10.40625 -4.234375 10.40625 -6.203125 L 10.40625 -8.890625 L 8.359375 -8.890625 L 8.359375 -11.859375 L 14.953125 -11.859375 L 14.953125 0 L 11.625 0 L 11.34375 -1.890625 C 10.625 -0.398438 9.390625 0.34375 7.640625 0.34375 Z M 7.640625 0.34375 "/></g></g></g><g fill="rgb(18.03894%, 18.03894%, 18.03894%)" fill-opacity="1"><g transform="translate(231.229814, 192.550007)"><g><path d="M 4.578125 -9.34375 L 0.21875 -22.859375 L 5 -22.859375 L 7.171875 -15.640625 L 9.109375 -22.859375 L 13.6875 -22.859375 L 9.421875 -9.34375 L 9.421875 0 L 4.578125 0 Z M 4.578125 -9.34375 "/></g></g></g><g fill="rgb(18.03894%, 18.03894%, 18.03894%)" fill-opacity="1"><g transform="translate(245.141686, 192.550007)"><g/></g></g><g fill="rgb(18.03894%, 18.03894%, 18.03894%)" fill-opacity="1"><g transform="translate(252.3657, 192.550007)"><g><path d="M 1.6875 -22.859375 L 7.640625 -22.859375 C 9.128906 -22.859375 10.394531 -22.703125 11.4375 -22.390625 C 12.488281 -22.078125 13.332031 -21.476562 13.96875 -20.59375 C 14.601562 -19.707031 14.921875 -18.46875 14.921875 -16.875 C 14.921875 -15.519531 14.628906 -14.460938 14.046875 -13.703125 C 13.460938 -12.953125 12.632812 -12.476562 11.5625 -12.28125 C 12.882812 -12.101562 13.894531 -11.546875 14.59375 -10.609375 C 15.289062 -9.671875 15.640625 -8.390625 15.640625 -6.765625 C 15.640625 -2.253906 13.332031 0 8.71875 0 L 1.6875 0 Z M 7.734375 -13.71875 C 8.804688 -13.71875 9.535156 -13.960938 9.921875 -14.453125 C 10.304688 -14.941406 10.5 -15.703125 10.5 -16.734375 C 10.5 -17.640625 10.253906 -18.320312 9.765625 -18.78125 C 9.273438 -19.238281 8.5625 -19.46875 7.625 -19.46875 L 6.75 -19.46875 L 6.75 -13.71875 Z M 7.8125 -3.53125 C 8.882812 -3.53125 9.640625 -3.796875 10.078125 -4.328125 C 10.523438 -4.867188 10.75 -5.710938 10.75 -6.859375 C 10.75 -8.148438 10.523438 -9.0625 10.078125 -9.59375 C 9.640625 -10.125 8.875 -10.390625 7.78125 -10.390625 L 6.75 -10.390625 L 6.75 -3.53125 Z M 7.8125 -3.53125 "/></g></g></g><g fill="rgb(18.03894%, 18.03894%, 18.03894%)" fill-opacity="1"><g transform="translate(268.958361, 192.550007)"><g><path d="M 4.90625 -22.859375 L 10.671875 -22.859375 L 14.921875 0 L 10.265625 0 L 9.515625 -4.828125 L 6.15625 -4.828125 L 5.359375 0 L 0.59375 0 Z M 9.03125 -7.84375 L 7.8125 -16.765625 L 6.609375 -7.84375 Z M 9.03125 -7.84375 "/></g></g></g><g fill="rgb(18.03894%, 18.03894%, 18.03894%)" fill-opacity="1"><g transform="translate(284.506922, 192.550007)"><g><path d="M 1.6875 -22.859375 L 5.25 -22.859375 L 9.9375 -11.859375 L 9.9375 -22.859375 L 14.109375 -22.859375 L 14.109375 0 L 10.6875 0 L 6.015625 -11.859375 L 6.015625 0 L 1.6875 0 Z M 1.6875 -22.859375 "/></g></g></g><g fill="rgb(18.03894%, 18.03894%, 18.03894%)" fill-opacity="1"><g transform="translate(300.33767, 192.550007)"><g><path d="M 1.6875 -22.859375 L 6.75 -22.859375 L 6.75 -13.515625 L 10.578125 -22.859375 L 15.515625 -22.859375 L 11.28125 -12.53125 L 15.71875 0 L 10.578125 0 L 7.28125 -10.109375 L 6.75 -9.203125 L 6.75 0 L 1.6875 0 Z M 1.6875 -22.859375 "/></g></g></g><g fill="rgb(41.958618%, 41.178894%, 41.178894%)" fill-opacity="1"><g transform="translate(133.524399, 210.177116)"><g><path d="M 3.453125 0.109375 C 2.410156 0.109375 1.675781 -0.195312 1.25 -0.8125 C 0.832031 -1.425781 0.625 -2.28125 0.625 -3.375 L 0.625 -7.09375 C 0.625 -8.25 0.832031 -9.125 1.25 -9.71875 C 1.664062 -10.320312 2.398438 -10.625 3.453125 -10.625 C 4.398438 -10.625 5.078125 -10.367188 5.484375 -9.859375 C 5.898438 -9.347656 6.109375 -8.59375 6.109375 -7.59375 L 6.109375 -6.765625 L 4.71875 -6.765625 L 4.71875 -7.5 C 4.71875 -7.988281 4.695312 -8.363281 4.65625 -8.625 C 4.613281 -8.882812 4.503906 -9.09375 4.328125 -9.25 C 4.148438 -9.40625 3.863281 -9.484375 3.46875 -9.484375 C 3.070312 -9.484375 2.773438 -9.394531 2.578125 -9.21875 C 2.378906 -9.050781 2.25 -8.816406 2.1875 -8.515625 C 2.132812 -8.222656 2.109375 -7.820312 2.109375 -7.3125 L 2.109375 -3.140625 C 2.109375 -2.609375 2.148438 -2.191406 2.234375 -1.890625 C 2.316406 -1.585938 2.457031 -1.367188 2.65625 -1.234375 C 2.851562 -1.109375 3.125 -1.046875 3.46875 -1.046875 C 3.84375 -1.046875 4.117188 -1.125 4.296875 -1.28125 C 4.484375 -1.445312 4.597656 -1.671875 4.640625 -1.953125 C 4.691406 -2.242188 4.71875 -2.640625 4.71875 -3.140625 L 4.71875 -3.90625 L 6.109375 -3.90625 L 6.109375 -3.140625 C 6.109375 -2.085938 5.910156 -1.28125 5.515625 -0.71875 C 5.117188 -0.164062 4.429688 0.109375 3.453125 0.109375 Z M 3.453125 0.109375 "/></g></g></g><g fill="rgb(41.958618%, 41.178894%, 41.178894%)" fill-opacity="1"><g transform="translate(142.81736, 210.177116)"><g><path d="M 0.734375 -10.53125 L 2.125 -10.53125 L 2.125 -6.734375 C 2.75 -7.328125 3.378906 -7.625 4.015625 -7.625 C 4.421875 -7.625 4.707031 -7.472656 4.875 -7.171875 C 5.050781 -6.878906 5.140625 -6.515625 5.140625 -6.078125 L 5.140625 0 L 3.75 0 L 3.75 -5.6875 C 3.75 -5.96875 3.703125 -6.175781 3.609375 -6.3125 C 3.523438 -6.457031 3.367188 -6.53125 3.140625 -6.53125 C 2.835938 -6.53125 2.5 -6.363281 2.125 -6.03125 L 2.125 0 L 0.734375 0 Z M 0.734375 -10.53125 "/></g></g></g><g fill="rgb(41.958618%, 41.178894%, 41.178894%)" fill-opacity="1"><g transform="translate(151.200596, 210.177116)"><g><path d="M 2.046875 0.109375 C 1.765625 0.109375 1.507812 0.0234375 1.28125 -0.140625 C 1.050781 -0.304688 0.867188 -0.523438 0.734375 -0.796875 C 0.609375 -1.066406 0.546875 -1.347656 0.546875 -1.640625 C 0.546875 -2.222656 0.671875 -2.695312 0.921875 -3.0625 C 1.171875 -3.4375 1.488281 -3.734375 1.875 -3.953125 C 2.269531 -4.171875 2.816406 -4.414062 3.515625 -4.6875 L 3.515625 -5.21875 C 3.515625 -5.71875 3.460938 -6.066406 3.359375 -6.265625 C 3.265625 -6.472656 3.0625 -6.578125 2.75 -6.578125 C 2.226562 -6.578125 1.96875 -6.222656 1.96875 -5.515625 L 1.96875 -5.140625 L 0.578125 -5.1875 C 0.597656 -6.019531 0.789062 -6.632812 1.15625 -7.03125 C 1.519531 -7.425781 2.082031 -7.625 2.84375 -7.625 C 3.5625 -7.625 4.082031 -7.425781 4.40625 -7.03125 C 4.738281 -6.632812 4.90625 -6.035156 4.90625 -5.234375 L 4.90625 -1.8125 C 4.90625 -1.25 4.945312 -0.644531 5.03125 0 L 3.75 0 C 3.65625 -0.488281 3.597656 -0.859375 3.578125 -1.109375 C 3.472656 -0.765625 3.289062 -0.472656 3.03125 -0.234375 C 2.78125 -0.00390625 2.453125 0.109375 2.046875 0.109375 Z M 2.59375 -1.09375 C 2.78125 -1.09375 2.957031 -1.160156 3.125 -1.296875 C 3.300781 -1.441406 3.429688 -1.582031 3.515625 -1.71875 L 3.515625 -3.84375 C 3.140625 -3.632812 2.847656 -3.453125 2.640625 -3.296875 C 2.441406 -3.148438 2.273438 -2.976562 2.140625 -2.78125 C 2.003906 -2.582031 1.9375 -2.34375 1.9375 -2.0625 C 1.9375 -1.75 1.992188 -1.507812 2.109375 -1.34375 C 2.222656 -1.175781 2.382812 -1.09375 2.59375 -1.09375 Z M 2.59375 -1.09375 "/></g></g></g><g fill="rgb(41.958618%, 41.178894%, 41.178894%)" fill-opacity="1"><g transform="translate(159.336912, 210.177116)"><g><path d="M 0.828125 -10.53125 L 2.21875 -10.53125 L 2.21875 0 L 0.828125 0 Z M 0.828125 -10.53125 "/></g></g></g><g fill="rgb(41.958618%, 41.178894%, 41.178894%)" fill-opacity="1"><g transform="translate(164.913014, 210.177116)"><g><path d="M 0.828125 -10.53125 L 2.21875 -10.53125 L 2.21875 0 L 0.828125 0 Z M 0.828125 -10.53125 "/></g></g></g><g fill="rgb(41.958618%, 41.178894%, 41.178894%)" fill-opacity="1"><g transform="translate(170.489116, 210.177116)"><g><path d="M 2.78125 0.109375 C 2.195312 0.109375 1.742188 0 1.421875 -0.21875 C 1.109375 -0.445312 0.882812 -0.773438 0.75 -1.203125 C 0.625 -1.640625 0.5625 -2.207031 0.5625 -2.90625 L 0.5625 -4.609375 C 0.5625 -5.648438 0.722656 -6.410156 1.046875 -6.890625 C 1.367188 -7.378906 1.945312 -7.625 2.78125 -7.625 C 3.382812 -7.625 3.835938 -7.492188 4.140625 -7.234375 C 4.453125 -6.984375 4.65625 -6.628906 4.75 -6.171875 C 4.851562 -5.722656 4.90625 -5.113281 4.90625 -4.34375 L 4.90625 -3.734375 L 1.953125 -3.734375 L 1.953125 -2.21875 C 1.953125 -1.757812 2.019531 -1.425781 2.15625 -1.21875 C 2.289062 -1.019531 2.503906 -0.921875 2.796875 -0.921875 C 3.085938 -0.921875 3.285156 -1.019531 3.390625 -1.21875 C 3.492188 -1.425781 3.546875 -1.738281 3.546875 -2.15625 L 3.546875 -2.609375 L 4.90625 -2.609375 L 4.90625 -2.328125 C 4.90625 -1.535156 4.734375 -0.929688 4.390625 -0.515625 C 4.054688 -0.0976562 3.519531 0.109375 2.78125 0.109375 Z M 3.546875 -4.484375 L 3.546875 -5.15625 C 3.546875 -5.664062 3.492188 -6.03125 3.390625 -6.25 C 3.296875 -6.476562 3.085938 -6.59375 2.765625 -6.59375 C 2.546875 -6.59375 2.375 -6.539062 2.25 -6.4375 C 2.132812 -6.332031 2.054688 -6.160156 2.015625 -5.921875 C 1.972656 -5.679688 1.953125 -5.335938 1.953125 -4.890625 L 1.953125 -4.484375 Z M 3.546875 -4.484375 "/></g></g></g><g fill="rgb(41.958618%, 41.178894%, 41.178894%)" fill-opacity="1"><g transform="translate(178.560456, 210.177116)"><g><path d="M 0.703125 -7.515625 L 2.09375 -7.515625 L 2.09375 -6.765625 C 2.6875 -7.335938 3.296875 -7.625 3.921875 -7.625 C 4.328125 -7.625 4.617188 -7.472656 4.796875 -7.171875 C 4.972656 -6.878906 5.0625 -6.515625 5.0625 -6.078125 L 5.0625 0 L 3.671875 0 L 3.671875 -5.6875 C 3.671875 -5.96875 3.625 -6.175781 3.53125 -6.3125 C 3.445312 -6.457031 3.289062 -6.53125 3.0625 -6.53125 C 2.789062 -6.53125 2.46875 -6.375 2.09375 -6.0625 L 2.09375 0 L 0.703125 0 Z M 0.703125 -7.515625 "/></g></g></g><g fill="rgb(41.958618%, 41.178894%, 41.178894%)" fill-opacity="1"><g transform="translate(186.865725, 210.177116)"><g><path d="M 2.65625 2.328125 C 1.925781 2.328125 1.34375 2.210938 0.90625 1.984375 C 0.476562 1.753906 0.265625 1.394531 0.265625 0.90625 C 0.265625 0.582031 0.363281 0.296875 0.5625 0.046875 C 0.769531 -0.191406 1.03125 -0.382812 1.34375 -0.53125 C 1.101562 -0.601562 0.921875 -0.710938 0.796875 -0.859375 C 0.671875 -1.003906 0.609375 -1.164062 0.609375 -1.34375 C 0.609375 -1.601562 0.671875 -1.828125 0.796875 -2.015625 C 0.929688 -2.203125 1.144531 -2.429688 1.4375 -2.703125 C 1.144531 -2.929688 0.925781 -3.210938 0.78125 -3.546875 C 0.644531 -3.890625 0.578125 -4.351562 0.578125 -4.9375 C 0.578125 -5.8125 0.753906 -6.476562 1.109375 -6.9375 C 1.472656 -7.394531 2 -7.625 2.6875 -7.625 C 3.082031 -7.625 3.40625 -7.550781 3.65625 -7.40625 C 3.914062 -7.269531 4.109375 -7.0625 4.234375 -6.78125 C 4.296875 -6.875 4.421875 -7 4.609375 -7.15625 C 4.804688 -7.320312 5.019531 -7.457031 5.25 -7.5625 L 5.453125 -7.65625 L 5.8125 -6.765625 C 5.632812 -6.722656 5.390625 -6.644531 5.078125 -6.53125 C 4.773438 -6.425781 4.59375 -6.34375 4.53125 -6.28125 C 4.59375 -6.125 4.644531 -5.90625 4.6875 -5.625 C 4.738281 -5.351562 4.765625 -5.113281 4.765625 -4.90625 C 4.765625 -4.082031 4.601562 -3.441406 4.28125 -2.984375 C 3.96875 -2.523438 3.4375 -2.296875 2.6875 -2.296875 C 2.457031 -2.296875 2.21875 -2.328125 1.96875 -2.390625 C 1.8125 -2.148438 1.734375 -1.957031 1.734375 -1.8125 C 1.734375 -1.71875 1.78125 -1.644531 1.875 -1.59375 C 1.976562 -1.539062 2.140625 -1.503906 2.359375 -1.484375 L 3.515625 -1.375 C 4.109375 -1.320312 4.546875 -1.144531 4.828125 -0.84375 C 5.117188 -0.539062 5.265625 -0.109375 5.265625 0.453125 C 5.265625 1.703125 4.394531 2.328125 2.65625 2.328125 Z M 2.6875 -3.28125 C 3.0625 -3.28125 3.304688 -3.410156 3.421875 -3.671875 C 3.535156 -3.929688 3.59375 -4.351562 3.59375 -4.9375 C 3.59375 -5.539062 3.535156 -5.976562 3.421875 -6.25 C 3.304688 -6.519531 3.066406 -6.65625 2.703125 -6.65625 C 2.335938 -6.65625 2.09375 -6.519531 1.96875 -6.25 C 1.84375 -5.976562 1.78125 -5.539062 1.78125 -4.9375 C 1.78125 -4.40625 1.84375 -3.992188 1.96875 -3.703125 C 2.09375 -3.421875 2.332031 -3.28125 2.6875 -3.28125 Z M 2.75 1.234375 C 3.25 1.234375 3.613281 1.175781 3.84375 1.0625 C 4.082031 0.945312 4.203125 0.757812 4.203125 0.5 C 4.203125 0.25 4.125 0.0664062 3.96875 -0.046875 C 3.820312 -0.160156 3.554688 -0.234375 3.171875 -0.265625 L 1.984375 -0.375 C 1.804688 -0.195312 1.671875 -0.0390625 1.578125 0.09375 C 1.484375 0.238281 1.4375 0.394531 1.4375 0.5625 C 1.4375 0.789062 1.53125 0.957031 1.71875 1.0625 C 1.914062 1.175781 2.257812 1.234375 2.75 1.234375 Z M 2.75 1.234375 "/></g></g></g><g fill="rgb(41.958618%, 41.178894%, 41.178894%)" fill-opacity="1"><g transform="translate(195.119003, 210.177116)"><g><path d="M 2.78125 0.109375 C 2.195312 0.109375 1.742188 0 1.421875 -0.21875 C 1.109375 -0.445312 0.882812 -0.773438 0.75 -1.203125 C 0.625 -1.640625 0.5625 -2.207031 0.5625 -2.90625 L 0.5625 -4.609375 C 0.5625 -5.648438 0.722656 -6.410156 1.046875 -6.890625 C 1.367188 -7.378906 1.945312 -7.625 2.78125 -7.625 C 3.382812 -7.625 3.835938 -7.492188 4.140625 -7.234375 C 4.453125 -6.984375 4.65625 -6.628906 4.75 -6.171875 C 4.851562 -5.722656 4.90625 -5.113281 4.90625 -4.34375 L 4.90625 -3.734375 L 1.953125 -3.734375 L 1.953125 -2.21875 C 1.953125 -1.757812 2.019531 -1.425781 2.15625 -1.21875 C 2.289062 -1.019531 2.503906 -0.921875 2.796875 -0.921875 C 3.085938 -0.921875 3.285156 -1.019531 3.390625 -1.21875 C 3.492188 -1.425781 3.546875 -1.738281 3.546875 -2.15625 L 3.546875 -2.609375 L 4.90625 -2.609375 L 4.90625 -2.328125 C 4.90625 -1.535156 4.734375 -0.929688 4.390625 -0.515625 C 4.054688 -0.0976562 3.519531 0.109375 2.78125 0.109375 Z M 3.546875 -4.484375 L 3.546875 -5.15625 C 3.546875 -5.664062 3.492188 -6.03125 3.390625 -6.25 C 3.296875 -6.476562 3.085938 -6.59375 2.765625 -6.59375 C 2.546875 -6.59375 2.375 -6.539062 2.25 -6.4375 C 2.132812 -6.332031 2.054688 -6.160156 2.015625 -5.921875 C 1.972656 -5.679688 1.953125 -5.335938 1.953125 -4.890625 L 1.953125 -4.484375 Z M 3.546875 -4.484375 "/></g></g></g><g fill="rgb(41.958618%, 41.178894%, 41.178894%)" fill-opacity="1"><g transform="translate(203.190343, 210.177116)"><g><path d="M 0.421875 -0.9375 L 2.71875 -6.46875 L 0.65625 -6.46875 L 0.65625 -7.515625 L 4.21875 -7.515625 L 4.21875 -6.765625 L 1.890625 -1.046875 L 4.15625 -1.046875 L 4.15625 0 L 0.421875 0 Z M 0.421875 -0.9375 "/></g></g></g><g fill="rgb(41.958618%, 41.178894%, 41.178894%)" fill-opacity="1"><g transform="translate(210.299968, 210.177116)"><g/></g></g><g fill="rgb(41.958618%, 41.178894%, 41.178894%)" fill-opacity="1"><g transform="translate(215.876072, 210.177116)"><g><path d="M 0.1875 -7.515625 L 1.59375 -7.515625 L 2.515625 -1.46875 L 3.453125 -7.515625 L 4.8125 -7.515625 L 3.375 0 L 1.671875 0 Z M 0.1875 -7.515625 "/></g></g></g><g fill="rgb(41.958618%, 41.178894%, 41.178894%)" fill-opacity="1"><g transform="translate(223.479555, 210.177116)"><g><path d="M 2.765625 0.109375 C 1.972656 0.109375 1.410156 -0.125 1.078125 -0.59375 C 0.742188 -1.070312 0.578125 -1.765625 0.578125 -2.671875 L 0.578125 -4.84375 C 0.578125 -5.75 0.742188 -6.4375 1.078125 -6.90625 C 1.410156 -7.382812 1.972656 -7.625 2.765625 -7.625 C 3.554688 -7.625 4.117188 -7.382812 4.453125 -6.90625 C 4.785156 -6.4375 4.953125 -5.75 4.953125 -4.84375 L 4.953125 -2.671875 C 4.953125 -1.765625 4.785156 -1.070312 4.453125 -0.59375 C 4.117188 -0.125 3.554688 0.109375 2.765625 0.109375 Z M 2.765625 -0.921875 C 3.015625 -0.921875 3.195312 -0.992188 3.3125 -1.140625 C 3.425781 -1.285156 3.492188 -1.46875 3.515625 -1.6875 C 3.546875 -1.90625 3.5625 -2.203125 3.5625 -2.578125 L 3.5625 -4.921875 C 3.5625 -5.296875 3.546875 -5.59375 3.515625 -5.8125 C 3.492188 -6.039062 3.425781 -6.226562 3.3125 -6.375 C 3.195312 -6.519531 3.015625 -6.59375 2.765625 -6.59375 C 2.515625 -6.59375 2.332031 -6.519531 2.21875 -6.375 C 2.101562 -6.226562 2.03125 -6.039062 2 -5.8125 C 1.976562 -5.59375 1.96875 -5.296875 1.96875 -4.921875 L 1.96875 -2.578125 C 1.96875 -2.203125 1.976562 -1.90625 2 -1.6875 C 2.03125 -1.46875 2.101562 -1.285156 2.21875 -1.140625 C 2.332031 -0.992188 2.515625 -0.921875 2.765625 -0.921875 Z M 2.765625 -0.921875 "/></g></g></g><g fill="rgb(41.958618%, 41.178894%, 41.178894%)" fill-opacity="1"><g transform="translate(231.602868, 210.177116)"><g><path d="M 2.703125 0.109375 C 1.617188 0.109375 1.078125 -0.488281 1.078125 -1.6875 L 1.078125 -6.59375 L 0.28125 -6.59375 L 0.28125 -7.515625 L 1.078125 -7.515625 L 1.078125 -9.71875 L 2.46875 -9.71875 L 2.46875 -7.515625 L 3.671875 -7.515625 L 3.671875 -6.59375 L 2.46875 -6.59375 L 2.46875 -1.78125 C 2.46875 -1.476562 2.515625 -1.265625 2.609375 -1.140625 C 2.703125 -1.023438 2.882812 -0.96875 3.15625 -0.96875 C 3.332031 -0.96875 3.503906 -0.976562 3.671875 -1 L 3.671875 0.03125 C 3.316406 0.0820312 2.992188 0.109375 2.703125 0.109375 Z M 2.703125 0.109375 "/></g></g></g><g fill="rgb(41.958618%, 41.178894%, 41.178894%)" fill-opacity="1"><g transform="translate(238.205651, 210.177116)"><g><path d="M 0.734375 -7.515625 L 2.125 -7.515625 L 2.125 -6.453125 C 2.382812 -6.867188 2.648438 -7.164062 2.921875 -7.34375 C 3.203125 -7.519531 3.492188 -7.609375 3.796875 -7.609375 C 3.867188 -7.609375 3.941406 -7.601562 4.015625 -7.59375 L 4.015625 -6.0625 C 3.734375 -6.164062 3.476562 -6.21875 3.25 -6.21875 C 3.019531 -6.21875 2.816406 -6.160156 2.640625 -6.046875 C 2.460938 -5.941406 2.289062 -5.753906 2.125 -5.484375 L 2.125 0 L 0.734375 0 Z M 0.734375 -7.515625 "/></g></g></g><g fill="rgb(41.958618%, 41.178894%, 41.178894%)" fill-opacity="1"><g transform="translate(244.977383, 210.177116)"><g><path d="M 2.78125 0.109375 C 2.195312 0.109375 1.742188 0 1.421875 -0.21875 C 1.109375 -0.445312 0.882812 -0.773438 0.75 -1.203125 C 0.625 -1.640625 0.5625 -2.207031 0.5625 -2.90625 L 0.5625 -4.609375 C 0.5625 -5.648438 0.722656 -6.410156 1.046875 -6.890625 C 1.367188 -7.378906 1.945312 -7.625 2.78125 -7.625 C 3.382812 -7.625 3.835938 -7.492188 4.140625 -7.234375 C 4.453125 -6.984375 4.65625 -6.628906 4.75 -6.171875 C 4.851562 -5.722656 4.90625 -5.113281 4.90625 -4.34375 L 4.90625 -3.734375 L 1.953125 -3.734375 L 1.953125 -2.21875 C 1.953125 -1.757812 2.019531 -1.425781 2.15625 -1.21875 C 2.289062 -1.019531 2.503906 -0.921875 2.796875 -0.921875 C 3.085938 -0.921875 3.285156 -1.019531 3.390625 -1.21875 C 3.492188 -1.425781 3.546875 -1.738281 3.546875 -2.15625 L 3.546875 -2.609375 L 4.90625 -2.609375 L 4.90625 -2.328125 C 4.90625 -1.535156 4.734375 -0.929688 4.390625 -0.515625 C 4.054688 -0.0976562 3.519531 0.109375 2.78125 0.109375 Z M 3.546875 -4.484375 L 3.546875 -5.15625 C 3.546875 -5.664062 3.492188 -6.03125 3.390625 -6.25 C 3.296875 -6.476562 3.085938 -6.59375 2.765625 -6.59375 C 2.546875 -6.59375 2.375 -6.539062 2.25 -6.4375 C 2.132812 -6.332031 2.054688 -6.160156 2.015625 -5.921875 C 1.972656 -5.679688 1.953125 -5.335938 1.953125 -4.890625 L 1.953125 -4.484375 Z M 3.546875 -4.484375 "/></g></g></g><g fill="rgb(41.958618%, 41.178894%, 41.178894%)" fill-opacity="1"><g transform="translate(253.048717, 210.177116)"><g/></g></g><g fill="rgb(41.958618%, 41.178894%, 41.178894%)" fill-opacity="1"><g transform="translate(258.624816, 210.177116)"><g><path d="M 2.78125 0.109375 C 2.195312 0.109375 1.742188 0 1.421875 -0.21875 C 1.109375 -0.445312 0.882812 -0.773438 0.75 -1.203125 C 0.625 -1.640625 0.5625 -2.207031 0.5625 -2.90625 L 0.5625 -4.609375 C 0.5625 -5.648438 0.722656 -6.410156 1.046875 -6.890625 C 1.367188 -7.378906 1.945312 -7.625 2.78125 -7.625 C 3.382812 -7.625 3.835938 -7.492188 4.140625 -7.234375 C 4.453125 -6.984375 4.65625 -6.628906 4.75 -6.171875 C 4.851562 -5.722656 4.90625 -5.113281 4.90625 -4.34375 L 4.90625 -3.734375 L 1.953125 -3.734375 L 1.953125 -2.21875 C 1.953125 -1.757812 2.019531 -1.425781 2.15625 -1.21875 C 2.289062 -1.019531 2.503906 -0.921875 2.796875 -0.921875 C 3.085938 -0.921875 3.285156 -1.019531 3.390625 -1.21875 C 3.492188 -1.425781 3.546875 -1.738281 3.546875 -2.15625 L 3.546875 -2.609375 L 4.90625 -2.609375 L 4.90625 -2.328125 C 4.90625 -1.535156 4.734375 -0.929688 4.390625 -0.515625 C 4.054688 -0.0976562 3.519531 0.109375 2.78125 0.109375 Z M 3.546875 -4.484375 L 3.546875 -5.15625 C 3.546875 -5.664062 3.492188 -6.03125 3.390625 -6.25 C 3.296875 -6.476562 3.085938 -6.59375 2.765625 -6.59375 C 2.546875 -6.59375 2.375 -6.539062 2.25 -6.4375 C 2.132812 -6.332031 2.054688 -6.160156 2.015625 -5.921875 C 1.972656 -5.679688 1.953125 -5.335938 1.953125 -4.890625 L 1.953125 -4.484375 Z M 3.15625 -10.71875 L 4.546875 -10.71875 L 3.09375 -8.140625 L 2.390625 -8.140625 Z M 3.15625 -10.71875 "/></g></g></g><g fill="rgb(41.958618%, 41.178894%, 41.178894%)" fill-opacity="1"><g transform="translate(266.696151, 210.177116)"><g><path d="M 0.703125 -7.515625 L 2.09375 -7.515625 L 2.09375 -6.921875 C 2.5 -7.390625 2.972656 -7.625 3.515625 -7.625 C 4.203125 -7.625 4.660156 -7.328125 4.890625 -6.734375 C 5.117188 -6.148438 5.234375 -5.503906 5.234375 -4.796875 L 5.234375 -2.984375 C 5.234375 -2.054688 5.09375 -1.304688 4.8125 -0.734375 C 4.53125 -0.171875 4.046875 0.109375 3.359375 0.109375 C 2.921875 0.109375 2.5 -0.113281 2.09375 -0.5625 L 2.09375 2.46875 L 0.703125 2.46875 Z M 3.09375 -0.984375 C 3.414062 -0.984375 3.617188 -1.144531 3.703125 -1.46875 C 3.796875 -1.800781 3.84375 -2.304688 3.84375 -2.984375 L 3.84375 -4.796875 C 3.84375 -5.347656 3.789062 -5.773438 3.6875 -6.078125 C 3.582031 -6.378906 3.367188 -6.53125 3.046875 -6.53125 C 2.722656 -6.53125 2.40625 -6.398438 2.09375 -6.140625 L 2.09375 -1.328125 C 2.394531 -1.097656 2.726562 -0.984375 3.09375 -0.984375 Z M 3.09375 -0.984375 "/></g></g></g><g fill="rgb(41.958618%, 41.178894%, 41.178894%)" fill-opacity="1"><g transform="translate(275.092383, 210.177116)"><g><path d="M 2.046875 0.109375 C 1.765625 0.109375 1.507812 0.0234375 1.28125 -0.140625 C 1.050781 -0.304688 0.867188 -0.523438 0.734375 -0.796875 C 0.609375 -1.066406 0.546875 -1.347656 0.546875 -1.640625 C 0.546875 -2.222656 0.671875 -2.695312 0.921875 -3.0625 C 1.171875 -3.4375 1.488281 -3.734375 1.875 -3.953125 C 2.269531 -4.171875 2.816406 -4.414062 3.515625 -4.6875 L 3.515625 -5.21875 C 3.515625 -5.71875 3.460938 -6.066406 3.359375 -6.265625 C 3.265625 -6.472656 3.0625 -6.578125 2.75 -6.578125 C 2.226562 -6.578125 1.96875 -6.222656 1.96875 -5.515625 L 1.96875 -5.140625 L 0.578125 -5.1875 C 0.597656 -6.019531 0.789062 -6.632812 1.15625 -7.03125 C 1.519531 -7.425781 2.082031 -7.625 2.84375 -7.625 C 3.5625 -7.625 4.082031 -7.425781 4.40625 -7.03125 C 4.738281 -6.632812 4.90625 -6.035156 4.90625 -5.234375 L 4.90625 -1.8125 C 4.90625 -1.25 4.945312 -0.644531 5.03125 0 L 3.75 0 C 3.65625 -0.488281 3.597656 -0.859375 3.578125 -1.109375 C 3.472656 -0.765625 3.289062 -0.472656 3.03125 -0.234375 C 2.78125 -0.00390625 2.453125 0.109375 2.046875 0.109375 Z M 2.59375 -1.09375 C 2.78125 -1.09375 2.957031 -1.160156 3.125 -1.296875 C 3.300781 -1.441406 3.429688 -1.582031 3.515625 -1.71875 L 3.515625 -3.84375 C 3.140625 -3.632812 2.847656 -3.453125 2.640625 -3.296875 C 2.441406 -3.148438 2.273438 -2.976562 2.140625 -2.78125 C 2.003906 -2.582031 1.9375 -2.34375 1.9375 -2.0625 C 1.9375 -1.75 1.992188 -1.507812 2.109375 -1.34375 C 2.222656 -1.175781 2.382812 -1.09375 2.59375 -1.09375 Z M 2.59375 -1.09375 "/></g></g></g><g fill="rgb(41.958618%, 41.178894%, 41.178894%)" fill-opacity="1"><g transform="translate(283.228697, 210.177116)"><g><path d="M 0.734375 -7.515625 L 2.125 -7.515625 L 2.125 -6.453125 C 2.382812 -6.867188 2.648438 -7.164062 2.921875 -7.34375 C 3.203125 -7.519531 3.492188 -7.609375 3.796875 -7.609375 C 3.867188 -7.609375 3.941406 -7.601562 4.015625 -7.59375 L 4.015625 -6.0625 C 3.734375 -6.164062 3.476562 -6.21875 3.25 -6.21875 C 3.019531 -6.21875 2.816406 -6.160156 2.640625 -6.046875 C 2.460938 -5.941406 2.289062 -5.753906 2.125 -5.484375 L 2.125 0 L 0.734375 0 Z M 0.734375 -7.515625 "/></g></g></g><g fill="rgb(41.958618%, 41.178894%, 41.178894%)" fill-opacity="1"><g transform="translate(290.000428, 210.177116)"><g><path d="M 2.65625 2.328125 C 1.925781 2.328125 1.34375 2.210938 0.90625 1.984375 C 0.476562 1.753906 0.265625 1.394531 0.265625 0.90625 C 0.265625 0.582031 0.363281 0.296875 0.5625 0.046875 C 0.769531 -0.191406 1.03125 -0.382812 1.34375 -0.53125 C 1.101562 -0.601562 0.921875 -0.710938 0.796875 -0.859375 C 0.671875 -1.003906 0.609375 -1.164062 0.609375 -1.34375 C 0.609375 -1.601562 0.671875 -1.828125 0.796875 -2.015625 C 0.929688 -2.203125 1.144531 -2.429688 1.4375 -2.703125 C 1.144531 -2.929688 0.925781 -3.210938 0.78125 -3.546875 C 0.644531 -3.890625 0.578125 -4.351562 0.578125 -4.9375 C 0.578125 -5.8125 0.753906 -6.476562 1.109375 -6.9375 C 1.472656 -7.394531 2 -7.625 2.6875 -7.625 C 3.082031 -7.625 3.40625 -7.550781 3.65625 -7.40625 C 3.914062 -7.269531 4.109375 -7.0625 4.234375 -6.78125 C 4.296875 -6.875 4.421875 -7 4.609375 -7.15625 C 4.804688 -7.320312 5.019531 -7.457031 5.25 -7.5625 L 5.453125 -7.65625 L 5.8125 -6.765625 C 5.632812 -6.722656 5.390625 -6.644531 5.078125 -6.53125 C 4.773438 -6.425781 4.59375 -6.34375 4.53125 -6.28125 C 4.59375 -6.125 4.644531 -5.90625 4.6875 -5.625 C 4.738281 -5.351562 4.765625 -5.113281 4.765625 -4.90625 C 4.765625 -4.082031 4.601562 -3.441406 4.28125 -2.984375 C 3.96875 -2.523438 3.4375 -2.296875 2.6875 -2.296875 C 2.457031 -2.296875 2.21875 -2.328125 1.96875 -2.390625 C 1.8125 -2.148438 1.734375 -1.957031 1.734375 -1.8125 C 1.734375 -1.71875 1.78125 -1.644531 1.875 -1.59375 C 1.976562 -1.539062 2.140625 -1.503906 2.359375 -1.484375 L 3.515625 -1.375 C 4.109375 -1.320312 4.546875 -1.144531 4.828125 -0.84375 C 5.117188 -0.539062 5.265625 -0.109375 5.265625 0.453125 C 5.265625 1.703125 4.394531 2.328125 2.65625 2.328125 Z M 2.6875 -3.28125 C 3.0625 -3.28125 3.304688 -3.410156 3.421875 -3.671875 C 3.535156 -3.929688 3.59375 -4.351562 3.59375 -4.9375 C 3.59375 -5.539062 3.535156 -5.976562 3.421875 -6.25 C 3.304688 -6.519531 3.066406 -6.65625 2.703125 -6.65625 C 2.335938 -6.65625 2.09375 -6.519531 1.96875 -6.25 C 1.84375 -5.976562 1.78125 -5.539062 1.78125 -4.9375 C 1.78125 -4.40625 1.84375 -3.992188 1.96875 -3.703125 C 2.09375 -3.421875 2.332031 -3.28125 2.6875 -3.28125 Z M 2.75 1.234375 C 3.25 1.234375 3.613281 1.175781 3.84375 1.0625 C 4.082031 0.945312 4.203125 0.757812 4.203125 0.5 C 4.203125 0.25 4.125 0.0664062 3.96875 -0.046875 C 3.820312 -0.160156 3.554688 -0.234375 3.171875 -0.265625 L 1.984375 -0.375 C 1.804688 -0.195312 1.671875 -0.0390625 1.578125 0.09375 C 1.484375 0.238281 1.4375 0.394531 1.4375 0.5625 C 1.4375 0.789062 1.53125 0.957031 1.71875 1.0625 C 1.914062 1.175781 2.257812 1.234375 2.75 1.234375 Z M 2.75 1.234375 "/></g></g></g><g fill="rgb(41.958618%, 41.178894%, 41.178894%)" fill-opacity="1"><g transform="translate(298.253701, 210.177116)"><g><path d="M 0.703125 -7.515625 L 2.09375 -7.515625 L 2.09375 -6.765625 C 2.6875 -7.335938 3.296875 -7.625 3.921875 -7.625 C 4.328125 -7.625 4.617188 -7.472656 4.796875 -7.171875 C 4.972656 -6.878906 5.0625 -6.515625 5.0625 -6.078125 L 5.0625 0 L 3.671875 0 L 3.671875 -5.6875 C 3.671875 -5.96875 3.625 -6.175781 3.53125 -6.3125 C 3.445312 -6.457031 3.289062 -6.53125 3.0625 -6.53125 C 2.789062 -6.53125 2.46875 -6.375 2.09375 -6.0625 L 2.09375 0 L 0.703125 0 Z M 0.703125 -7.515625 "/></g></g></g><g fill="rgb(41.958618%, 41.178894%, 41.178894%)" fill-opacity="1"><g transform="translate(306.558964, 210.177116)"><g><path d="M 2.78125 0.109375 C 2.195312 0.109375 1.742188 0 1.421875 -0.21875 C 1.109375 -0.445312 0.882812 -0.773438 0.75 -1.203125 C 0.625 -1.640625 0.5625 -2.207031 0.5625 -2.90625 L 0.5625 -4.609375 C 0.5625 -5.648438 0.722656 -6.410156 1.046875 -6.890625 C 1.367188 -7.378906 1.945312 -7.625 2.78125 -7.625 C 3.382812 -7.625 3.835938 -7.492188 4.140625 -7.234375 C 4.453125 -6.984375 4.65625 -6.628906 4.75 -6.171875 C 4.851562 -5.722656 4.90625 -5.113281 4.90625 -4.34375 L 4.90625 -3.734375 L 1.953125 -3.734375 L 1.953125 -2.21875 C 1.953125 -1.757812 2.019531 -1.425781 2.15625 -1.21875 C 2.289062 -1.019531 2.503906 -0.921875 2.796875 -0.921875 C 3.085938 -0.921875 3.285156 -1.019531 3.390625 -1.21875 C 3.492188 -1.425781 3.546875 -1.738281 3.546875 -2.15625 L 3.546875 -2.609375 L 4.90625 -2.609375 L 4.90625 -2.328125 C 4.90625 -1.535156 4.734375 -0.929688 4.390625 -0.515625 C 4.054688 -0.0976562 3.519531 0.109375 2.78125 0.109375 Z M 3.546875 -4.484375 L 3.546875 -5.15625 C 3.546875 -5.664062 3.492188 -6.03125 3.390625 -6.25 C 3.296875 -6.476562 3.085938 -6.59375 2.765625 -6.59375 C 2.546875 -6.59375 2.375 -6.539062 2.25 -6.4375 C 2.132812 -6.332031 2.054688 -6.160156 2.015625 -5.921875 C 1.972656 -5.679688 1.953125 -5.335938 1.953125 -4.890625 L 1.953125 -4.484375 Z M 3.546875 -4.484375 "/></g></g></g></svg>