<svg xmlns="http://www.w3.org/2000/svg" xmlns:xlink="http://www.w3.org/1999/xlink" zoomAndPan="magnify" preserveAspectRatio="xMidYMid meet" version="1.0" viewBox="71.69 76.39 233.28 223.25"><defs><g><g id="id1"/><g id="id2"/></g><clipPath id="id3"><path d="M 128 76.394531 L 255.9375 76.394531 L 255.9375 204 L 128 204 Z M 128 76.394531 " clip-rule="nonzero"/></clipPath></defs><path fill="rgb(99.21875%, 80.389404%, 88.62915%)" d="M 175.300781 177.453125 L 175.300781 213.832031 C 175.300781 216.75 192.125 226.394531 192.125 223.476562 L 192.125 187.097656 C 192.125 190.015625 175.300781 180.375 175.300781 177.453125 " fill-opacity="1" fill-rule="nonzero"/><path fill="rgb(97.648621%, 67.449951%, 81.17981%)" d="M 208.949219 177.453125 L 208.949219 213.832031 C 208.949219 216.75 192.125 226.394531 192.125 223.476562 L 192.125 187.097656 C 192.125 190.015625 208.949219 180.375 208.949219 177.453125 " fill-opacity="1" fill-rule="nonzero"/><path fill="rgb(97.648621%, 67.449951%, 81.17981%)" d="M 137.082031 160.929688 L 137.082031 190.550781 C 137.082031 193.46875 153.90625 203.113281 153.90625 200.195312 L 153.90625 170.574219 C 153.90625 173.492188 137.082031 163.851562 137.082031 160.929688 " fill-opacity="1" fill-rule="nonzero"/><path fill="rgb(60.389709%, 25.878906%, 42.749023%)" d="M 170.734375 160.929688 L 170.734375 190.550781 C 170.734375 193.46875 153.90625 203.113281 153.90625 200.195312 L 153.90625 170.574219 C 153.90625 173.492188 170.734375 163.851562 170.734375 160.929688 " fill-opacity="1" fill-rule="nonzero"/><path fill="rgb(60.389709%, 25.878906%, 42.749023%)" d="M 213.515625 161.585938 L 213.515625 191.203125 C 213.515625 194.125 230.339844 203.765625 230.339844 200.847656 L 230.339844 171.230469 C 230.339844 174.148438 213.515625 164.503906 213.515625 161.585938 " fill-opacity="1" fill-rule="nonzero"/><path fill="rgb(97.648621%, 67.449951%, 81.17981%)" d="M 247.164062 161.585938 L 247.164062 191.203125 C 247.164062 194.125 230.339844 203.765625 230.339844 200.847656 L 230.339844 171.230469 C 230.339844 174.148438 247.164062 164.503906 247.164062 161.585938 " fill-opacity="1" fill-rule="nonzero"/><g clip-path="url(#id3)"><path fill="rgb(97.648621%, 67.449951%, 81.17981%)" d="M 255.9375 139.871094 C 255.9375 174.929688 227.4375 203.351562 192.285156 203.351562 C 157.128906 203.351562 128.628906 174.929688 128.628906 139.871094 C 128.628906 104.8125 157.128906 76.394531 192.285156 76.394531 C 227.4375 76.394531 255.9375 104.8125 255.9375 139.871094 " fill-opacity="1" fill-rule="nonzero"/></g><path fill="rgb(99.21875%, 80.389404%, 88.62915%)" d="M 168.015625 151.859375 C 172.664062 169.34375 166.601562 186.113281 154.46875 189.320312 C 142.339844 192.527344 128.738281 180.960938 124.089844 163.480469 C 119.441406 146 125.507812 129.226562 137.636719 126.019531 C 149.765625 122.8125 163.367188 134.382812 168.015625 151.859375 " fill-opacity="1" fill-rule="nonzero"/><path fill="rgb(60.389709%, 25.878906%, 42.749023%)" d="M 161.621094 93.390625 C 163.261719 99.570312 165.472656 102.027344 158.101562 105.117188 C 154.015625 106.832031 146.09375 100.238281 146.09375 97.496094 C 146.09375 91.105469 140.761719 88.824219 150.882812 84.257812 C 154.925781 82.433594 159.976562 87.210938 161.621094 93.390625 " fill-opacity="1" fill-rule="nonzero"/><path fill="rgb(99.21875%, 80.389404%, 88.62915%)" d="M 158.835938 95.210938 C 160.476562 101.390625 160.492188 104.816406 156.203125 105.949219 C 151.917969 107.082031 143.308594 102.0625 143.308594 99.320312 C 143.308594 92.925781 143.808594 87.214844 148.097656 86.078125 C 152.382812 84.945312 157.191406 89.035156 158.835938 95.210938 " fill-opacity="1" fill-rule="nonzero"/><path fill="rgb(60.389709%, 25.878906%, 42.749023%)" d="M 189.746094 109.121094 C 191.390625 115.300781 193.597656 117.757812 186.230469 120.851562 C 182.140625 122.566406 174.222656 115.972656 174.222656 113.226562 C 174.222656 106.835938 168.890625 104.554688 179.011719 99.988281 C 183.050781 98.164062 188.105469 102.945312 189.746094 109.121094 " fill-opacity="1" fill-rule="nonzero"/><path fill="rgb(99.21875%, 80.389404%, 88.62915%)" d="M 186.960938 110.945312 C 188.605469 117.121094 188.621094 120.546875 184.332031 121.679688 C 180.042969 122.8125 171.4375 117.792969 171.4375 115.050781 C 171.4375 108.65625 171.9375 102.945312 176.222656 101.8125 C 180.511719 100.675781 185.320312 104.765625 186.960938 110.945312 " fill-opacity="1" fill-rule="nonzero"/><path fill="rgb(97.648621%, 67.449951%, 81.17981%)" d="M 158.6875 163.714844 C 159.25 169.28125 156.566406 174.113281 152.703125 174.5 C 148.835938 174.886719 145.25 170.683594 144.6875 165.113281 C 144.128906 159.542969 146.808594 154.710938 150.675781 154.324219 C 154.542969 153.941406 158.128906 158.144531 158.6875 163.714844 " fill-opacity="1" fill-rule="nonzero"/><path fill="rgb(97.648621%, 67.449951%, 81.17981%)" d="M 140.898438 155.011719 C 141.457031 160.582031 138.777344 165.414062 134.914062 165.796875 C 131.046875 166.183594 127.460938 161.980469 126.898438 156.410156 C 126.339844 150.839844 129.019531 146.011719 132.886719 145.625 C 136.75 145.238281 140.339844 149.441406 140.898438 155.011719 " fill-opacity="1" fill-rule="nonzero"/><path fill="rgb(60.389709%, 25.878906%, 42.749023%)" d="M 167.640625 123.320312 C 167.855469 125.425781 166.839844 127.253906 165.378906 127.398438 C 163.917969 127.542969 162.5625 125.953125 162.347656 123.847656 C 162.136719 121.742188 163.152344 119.917969 164.613281 119.769531 C 166.074219 119.625 167.429688 121.214844 167.640625 123.320312 " fill-opacity="1" fill-rule="nonzero"/><path fill="rgb(60.389709%, 25.878906%, 42.749023%)" d="M 148.699219 112.382812 C 148.910156 114.488281 147.898438 116.316406 146.4375 116.460938 C 144.976562 116.609375 143.617188 115.019531 143.40625 112.914062 C 143.195312 110.804688 144.207031 108.980469 145.667969 108.835938 C 147.132812 108.6875 148.488281 110.277344 148.699219 112.382812 " fill-opacity="1" fill-rule="nonzero"/><path fill="rgb(29.019165%, 10.198975%, 18.429565%)" d="M 204.691406 83.785156 L 198.113281 79.988281 L 174.820312 93.503906 L 181.398438 97.304688 L 204.691406 83.785156 " fill-opacity="1" fill-rule="nonzero"/><path fill="rgb(60.389709%, 25.878906%, 42.749023%)" d="M 198.59375 83.367188 L 202.011719 85.339844 L 204.691406 83.785156 L 198.113281 79.988281 L 174.820312 93.503906 L 177.980469 95.332031 L 198.59375 83.367188 " fill-opacity="1" fill-rule="nonzero"/><g fill="rgb(18.03894%, 18.03894%, 18.03894%)" fill-opacity="1"><g transform="translate(69.630293, 274.364639)"><g><path d="M 2.578125 -29.34375 L 9.53125 -29.34375 L 12.75 -12.28125 L 16.234375 -29.34375 L 22.9375 -29.34375 L 23.4375 0 L 18.84375 0 L 18.296875 -19.53125 L 14.890625 0 L 10.796875 0 L 7.171875 -19.671875 L 6.734375 0 L 2.0625 0 Z M 2.578125 -29.34375 "/></g></g></g><g fill="rgb(18.03894%, 18.03894%, 18.03894%)" fill-opacity="1"><g transform="translate(95.138287, 274.364639)"><g><path d="M 5.875 -12 L 0.296875 -29.34375 L 6.40625 -29.34375 L 9.203125 -20.078125 L 11.703125 -29.34375 L 17.578125 -29.34375 L 12.109375 -12 L 12.109375 0 L 5.875 0 Z M 5.875 -12 "/></g></g></g><g fill="rgb(18.03894%, 18.03894%, 18.03894%)" fill-opacity="1"><g transform="translate(122.276767, 274.364639)"><g><path d="M 2.171875 -29.34375 L 12.03125 -29.34375 C 14.613281 -29.34375 16.546875 -28.613281 17.828125 -27.15625 C 19.109375 -25.695312 19.75 -23.585938 19.75 -20.828125 C 19.75 -17.691406 19.003906 -15.515625 17.515625 -14.296875 C 16.035156 -13.078125 13.953125 -12.46875 11.265625 -12.46875 L 8.65625 -12.46875 L 8.65625 0 L 2.171875 0 Z M 10.828125 -17 C 11.960938 -17 12.71875 -17.300781 13.09375 -17.90625 C 13.46875 -18.507812 13.65625 -19.519531 13.65625 -20.9375 C 13.65625 -22.25 13.472656 -23.21875 13.109375 -23.84375 C 12.753906 -24.46875 11.984375 -24.78125 10.796875 -24.78125 L 8.65625 -24.78125 L 8.65625 -17 Z M 10.828125 -17 "/></g></g></g><g fill="rgb(18.03894%, 18.03894%, 18.03894%)" fill-opacity="1"><g transform="translate(142.965779, 274.364639)"><g><path d="M 2.203125 -29.34375 L 8.703125 -29.34375 L 8.703125 0 L 2.203125 0 Z M 2.203125 -29.34375 "/></g></g></g><g fill="rgb(18.03894%, 18.03894%, 18.03894%)" fill-opacity="1"><g transform="translate(153.871898, 274.364639)"><g><path d="M 9.8125 0.4375 C 6.914062 0.4375 4.851562 -0.441406 3.625 -2.203125 C 2.394531 -3.972656 1.78125 -6.472656 1.78125 -9.703125 L 1.78125 -19.5625 C 1.78125 -22.875 2.445312 -25.398438 3.78125 -27.140625 C 5.125 -28.878906 7.390625 -29.75 10.578125 -29.75 C 13.648438 -29.75 15.847656 -29 17.171875 -27.5 C 18.503906 -26 19.171875 -23.882812 19.171875 -21.15625 L 19.171875 -19.28125 L 12.828125 -19.28125 L 12.828125 -21.671875 C 12.828125 -22.828125 12.691406 -23.703125 12.421875 -24.296875 C 12.160156 -24.890625 11.570312 -25.1875 10.65625 -25.1875 C 9.707031 -25.1875 9.09375 -24.859375 8.8125 -24.203125 C 8.539062 -23.546875 8.40625 -22.640625 8.40625 -21.484375 L 8.40625 -7.90625 C 8.40625 -6.738281 8.578125 -5.820312 8.921875 -5.15625 C 9.273438 -4.5 9.910156 -4.171875 10.828125 -4.171875 C 12.523438 -4.171875 13.375 -5.4375 13.375 -7.96875 L 13.375 -11.40625 L 10.71875 -11.40625 L 10.71875 -15.21875 L 19.203125 -15.21875 L 19.203125 0 L 14.921875 0 L 14.5625 -2.421875 C 13.644531 -0.515625 12.0625 0.4375 9.8125 0.4375 Z M 9.8125 0.4375 "/></g></g></g><g fill="rgb(18.03894%, 18.03894%, 18.03894%)" fill-opacity="1"><g transform="translate(174.959477, 274.364639)"><g><path d="M 9.8125 0.4375 C 6.914062 0.4375 4.851562 -0.441406 3.625 -2.203125 C 2.394531 -3.972656 1.78125 -6.472656 1.78125 -9.703125 L 1.78125 -19.5625 C 1.78125 -22.875 2.445312 -25.398438 3.78125 -27.140625 C 5.125 -28.878906 7.390625 -29.75 10.578125 -29.75 C 13.648438 -29.75 15.847656 -29 17.171875 -27.5 C 18.503906 -26 19.171875 -23.882812 19.171875 -21.15625 L 19.171875 -19.28125 L 12.828125 -19.28125 L 12.828125 -21.671875 C 12.828125 -22.828125 12.691406 -23.703125 12.421875 -24.296875 C 12.160156 -24.890625 11.570312 -25.1875 10.65625 -25.1875 C 9.707031 -25.1875 9.09375 -24.859375 8.8125 -24.203125 C 8.539062 -23.546875 8.40625 -22.640625 8.40625 -21.484375 L 8.40625 -7.90625 C 8.40625 -6.738281 8.578125 -5.820312 8.921875 -5.15625 C 9.273438 -4.5 9.910156 -4.171875 10.828125 -4.171875 C 12.523438 -4.171875 13.375 -5.4375 13.375 -7.96875 L 13.375 -11.40625 L 10.71875 -11.40625 L 10.71875 -15.21875 L 19.203125 -15.21875 L 19.203125 0 L 14.921875 0 L 14.5625 -2.421875 C 13.644531 -0.515625 12.0625 0.4375 9.8125 0.4375 Z M 9.8125 0.4375 "/></g></g></g><g fill="rgb(18.03894%, 18.03894%, 18.03894%)" fill-opacity="1"><g transform="translate(196.047055, 274.364639)"><g><path d="M 5.875 -12 L 0.296875 -29.34375 L 6.40625 -29.34375 L 9.203125 -20.078125 L 11.703125 -29.34375 L 17.578125 -29.34375 L 12.109375 -12 L 12.109375 0 L 5.875 0 Z M 5.875 -12 "/></g></g></g><g fill="rgb(18.03894%, 18.03894%, 18.03894%)" fill-opacity="1"><g transform="translate(213.9099, 274.364639)"><g/></g></g><g fill="rgb(18.03894%, 18.03894%, 18.03894%)" fill-opacity="1"><g transform="translate(223.185535, 274.364639)"><g><path d="M 2.171875 -29.34375 L 9.8125 -29.34375 C 11.726562 -29.34375 13.351562 -29.144531 14.6875 -28.75 C 16.03125 -28.351562 17.113281 -27.585938 17.9375 -26.453125 C 18.757812 -25.316406 19.171875 -23.722656 19.171875 -21.671875 C 19.171875 -19.929688 18.796875 -18.578125 18.046875 -17.609375 C 17.296875 -16.640625 16.234375 -16.023438 14.859375 -15.765625 C 16.546875 -15.546875 17.835938 -14.832031 18.734375 -13.625 C 19.628906 -12.414062 20.078125 -10.773438 20.078125 -8.703125 C 20.078125 -2.898438 17.117188 0 11.203125 0 L 2.171875 0 Z M 9.921875 -17.609375 C 11.304688 -17.609375 12.242188 -17.921875 12.734375 -18.546875 C 13.234375 -19.179688 13.484375 -20.160156 13.484375 -21.484375 C 13.484375 -22.640625 13.164062 -23.515625 12.53125 -24.109375 C 11.90625 -24.703125 10.988281 -25 9.78125 -25 L 8.65625 -25 L 8.65625 -17.609375 Z M 10.03125 -4.53125 C 11.414062 -4.53125 12.390625 -4.875 12.953125 -5.5625 C 13.523438 -6.25 13.8125 -7.332031 13.8125 -8.8125 C 13.8125 -10.476562 13.523438 -11.644531 12.953125 -12.3125 C 12.390625 -12.988281 11.40625 -13.328125 10 -13.328125 L 8.65625 -13.328125 L 8.65625 -4.53125 Z M 10.03125 -4.53125 "/></g></g></g><g fill="rgb(18.03894%, 18.03894%, 18.03894%)" fill-opacity="1"><g transform="translate(244.490514, 274.364639)"><g><path d="M 6.3125 -29.34375 L 13.703125 -29.34375 L 19.171875 0 L 13.1875 0 L 12.21875 -6.203125 L 7.90625 -6.203125 L 6.890625 0 L 0.765625 0 Z M 11.59375 -10.078125 L 10.03125 -21.515625 L 8.484375 -10.078125 Z M 11.59375 -10.078125 "/></g></g></g><g fill="rgb(18.03894%, 18.03894%, 18.03894%)" fill-opacity="1"><g transform="translate(264.454866, 274.364639)"><g><path d="M 2.171875 -29.34375 L 6.734375 -29.34375 L 12.75 -15.21875 L 12.75 -29.34375 L 18.125 -29.34375 L 18.125 0 L 13.734375 0 L 7.71875 -15.21875 L 7.71875 0 L 2.171875 0 Z M 2.171875 -29.34375 "/></g></g></g><g fill="rgb(18.03894%, 18.03894%, 18.03894%)" fill-opacity="1"><g transform="translate(284.781549, 274.364639)"><g><path d="M 2.171875 -29.34375 L 8.65625 -29.34375 L 8.65625 -17.359375 L 13.59375 -29.34375 L 19.921875 -29.34375 L 14.5 -16.09375 L 20.1875 0 L 13.59375 0 L 9.34375 -12.96875 L 8.65625 -11.8125 L 8.65625 0 L 2.171875 0 Z M 2.171875 -29.34375 "/></g></g></g><g fill="rgb(41.958618%, 41.178894%, 41.178894%)" fill-opacity="1"><g transform="translate(74.669069, 296.50703)"><g><path d="M 4.390625 0.15625 C 3.066406 0.15625 2.132812 -0.238281 1.59375 -1.03125 C 1.0625 -1.820312 0.796875 -2.910156 0.796875 -4.296875 L 0.796875 -9.015625 C 0.796875 -10.472656 1.054688 -11.582031 1.578125 -12.34375 C 2.109375 -13.101562 3.046875 -13.484375 4.390625 -13.484375 C 5.585938 -13.484375 6.445312 -13.15625 6.96875 -12.5 C 7.488281 -11.851562 7.75 -10.898438 7.75 -9.640625 L 7.75 -8.578125 L 5.984375 -8.578125 L 5.984375 -9.515625 C 5.984375 -10.128906 5.957031 -10.601562 5.90625 -10.9375 C 5.851562 -11.269531 5.710938 -11.535156 5.484375 -11.734375 C 5.253906 -11.929688 4.894531 -12.03125 4.40625 -12.03125 C 3.894531 -12.03125 3.515625 -11.921875 3.265625 -11.703125 C 3.023438 -11.492188 2.863281 -11.195312 2.78125 -10.8125 C 2.707031 -10.4375 2.671875 -9.929688 2.671875 -9.296875 L 2.671875 -4 C 2.671875 -3.3125 2.722656 -2.773438 2.828125 -2.390625 C 2.941406 -2.003906 3.125 -1.726562 3.375 -1.5625 C 3.625 -1.394531 3.96875 -1.3125 4.40625 -1.3125 C 4.875 -1.3125 5.222656 -1.414062 5.453125 -1.625 C 5.691406 -1.84375 5.835938 -2.128906 5.890625 -2.484375 C 5.953125 -2.847656 5.984375 -3.34375 5.984375 -3.96875 L 5.984375 -4.96875 L 7.75 -4.96875 L 7.75 -3.96875 C 7.75 -2.644531 7.5 -1.625 7 -0.90625 C 6.5 -0.195312 5.628906 0.15625 4.390625 0.15625 Z M 4.390625 0.15625 "/></g></g></g><g fill="rgb(41.958618%, 41.178894%, 41.178894%)" fill-opacity="1"><g transform="translate(86.466592, 296.50703)"><g><path d="M 0.9375 -13.359375 L 2.703125 -13.359375 L 2.703125 -8.546875 C 3.492188 -9.296875 4.289062 -9.671875 5.09375 -9.671875 C 5.613281 -9.671875 5.976562 -9.484375 6.1875 -9.109375 C 6.40625 -8.734375 6.515625 -8.269531 6.515625 -7.71875 L 6.515625 0 L 4.75 0 L 4.75 -7.203125 C 4.75 -7.566406 4.691406 -7.835938 4.578125 -8.015625 C 4.472656 -8.191406 4.28125 -8.28125 4 -8.28125 C 3.613281 -8.28125 3.179688 -8.070312 2.703125 -7.65625 L 2.703125 0 L 0.9375 0 Z M 0.9375 -13.359375 "/></g></g></g><g fill="rgb(41.958618%, 41.178894%, 41.178894%)" fill-opacity="1"><g transform="translate(97.10912, 296.50703)"><g><path d="M 2.609375 0.125 C 2.242188 0.125 1.914062 0.0195312 1.625 -0.1875 C 1.332031 -0.394531 1.101562 -0.664062 0.9375 -1 C 0.769531 -1.34375 0.6875 -1.703125 0.6875 -2.078125 C 0.6875 -2.828125 0.847656 -3.4375 1.171875 -3.90625 C 1.492188 -4.375 1.898438 -4.742188 2.390625 -5.015625 C 2.890625 -5.285156 3.578125 -5.597656 4.453125 -5.953125 L 4.453125 -6.640625 C 4.453125 -7.265625 4.390625 -7.703125 4.265625 -7.953125 C 4.140625 -8.210938 3.882812 -8.34375 3.5 -8.34375 C 2.820312 -8.34375 2.484375 -7.894531 2.484375 -7 L 2.484375 -6.515625 L 0.75 -6.578125 C 0.769531 -7.640625 1.007812 -8.421875 1.46875 -8.921875 C 1.925781 -9.421875 2.640625 -9.671875 3.609375 -9.671875 C 4.523438 -9.671875 5.1875 -9.421875 5.59375 -8.921875 C 6.007812 -8.421875 6.21875 -7.664062 6.21875 -6.65625 L 6.21875 -2.296875 C 6.21875 -1.578125 6.273438 -0.8125 6.390625 0 L 4.765625 0 C 4.648438 -0.625 4.570312 -1.09375 4.53125 -1.40625 C 4.40625 -0.976562 4.175781 -0.613281 3.84375 -0.3125 C 3.519531 -0.0195312 3.109375 0.125 2.609375 0.125 Z M 3.296875 -1.390625 C 3.523438 -1.390625 3.75 -1.476562 3.96875 -1.65625 C 4.195312 -1.84375 4.359375 -2.015625 4.453125 -2.171875 L 4.453125 -4.890625 C 3.984375 -4.617188 3.617188 -4.382812 3.359375 -4.1875 C 3.097656 -4 2.878906 -3.78125 2.703125 -3.53125 C 2.535156 -3.28125 2.453125 -2.976562 2.453125 -2.625 C 2.453125 -2.226562 2.523438 -1.921875 2.671875 -1.703125 C 2.816406 -1.492188 3.023438 -1.390625 3.296875 -1.390625 Z M 3.296875 -1.390625 "/></g></g></g><g fill="rgb(41.958618%, 41.178894%, 41.178894%)" fill-opacity="1"><g transform="translate(107.438136, 296.50703)"><g><path d="M 1.0625 -13.359375 L 2.828125 -13.359375 L 2.828125 0 L 1.0625 0 Z M 1.0625 -13.359375 "/></g></g></g><g fill="rgb(41.958618%, 41.178894%, 41.178894%)" fill-opacity="1"><g transform="translate(114.516644, 296.50703)"><g><path d="M 1.0625 -13.359375 L 2.828125 -13.359375 L 2.828125 0 L 1.0625 0 Z M 1.0625 -13.359375 "/></g></g></g><g fill="rgb(41.958618%, 41.178894%, 41.178894%)" fill-opacity="1"><g transform="translate(121.595152, 296.50703)"><g><path d="M 3.53125 0.125 C 2.789062 0.125 2.21875 -0.0078125 1.8125 -0.28125 C 1.40625 -0.5625 1.117188 -0.976562 0.953125 -1.53125 C 0.785156 -2.082031 0.703125 -2.796875 0.703125 -3.671875 L 0.703125 -5.859375 C 0.703125 -7.179688 0.910156 -8.144531 1.328125 -8.75 C 1.742188 -9.363281 2.476562 -9.671875 3.53125 -9.671875 C 4.300781 -9.671875 4.878906 -9.507812 5.265625 -9.1875 C 5.660156 -8.875 5.921875 -8.425781 6.046875 -7.84375 C 6.171875 -7.269531 6.234375 -6.492188 6.234375 -5.515625 L 6.234375 -4.734375 L 2.46875 -4.734375 L 2.46875 -2.828125 C 2.46875 -2.242188 2.550781 -1.820312 2.71875 -1.5625 C 2.894531 -1.300781 3.171875 -1.171875 3.546875 -1.171875 C 3.921875 -1.171875 4.171875 -1.300781 4.296875 -1.5625 C 4.429688 -1.820312 4.5 -2.210938 4.5 -2.734375 L 4.5 -3.3125 L 6.21875 -3.3125 L 6.21875 -2.953125 C 6.21875 -1.953125 6.003906 -1.1875 5.578125 -0.65625 C 5.148438 -0.132812 4.46875 0.125 3.53125 0.125 Z M 4.5 -5.6875 L 4.5 -6.546875 C 4.5 -7.203125 4.4375 -7.664062 4.3125 -7.9375 C 4.1875 -8.21875 3.921875 -8.359375 3.515625 -8.359375 C 3.222656 -8.359375 3.003906 -8.289062 2.859375 -8.15625 C 2.710938 -8.03125 2.609375 -7.816406 2.546875 -7.515625 C 2.492188 -7.210938 2.46875 -6.773438 2.46875 -6.203125 L 2.46875 -5.6875 Z M 4.5 -5.6875 "/></g></g></g><g fill="rgb(41.958618%, 41.178894%, 41.178894%)" fill-opacity="1"><g transform="translate(131.841671, 296.50703)"><g><path d="M 0.890625 -9.53125 L 2.65625 -9.53125 L 2.65625 -8.59375 C 3.414062 -9.3125 4.191406 -9.671875 4.984375 -9.671875 C 5.503906 -9.671875 5.875 -9.484375 6.09375 -9.109375 C 6.3125 -8.734375 6.421875 -8.269531 6.421875 -7.71875 L 6.421875 0 L 4.65625 0 L 4.65625 -7.203125 C 4.65625 -7.566406 4.597656 -7.835938 4.484375 -8.015625 C 4.378906 -8.191406 4.179688 -8.28125 3.890625 -8.28125 C 3.535156 -8.28125 3.125 -8.082031 2.65625 -7.6875 L 2.65625 0 L 0.890625 0 Z M 0.890625 -9.53125 "/></g></g></g><g fill="rgb(41.958618%, 41.178894%, 41.178894%)" fill-opacity="1"><g transform="translate(142.385198, 296.50703)"><g><path d="M 3.359375 2.953125 C 2.441406 2.953125 1.707031 2.804688 1.15625 2.515625 C 0.601562 2.222656 0.328125 1.769531 0.328125 1.15625 C 0.328125 0.738281 0.457031 0.375 0.71875 0.0625 C 0.976562 -0.238281 1.304688 -0.484375 1.703125 -0.671875 C 1.398438 -0.765625 1.171875 -0.90625 1.015625 -1.09375 C 0.859375 -1.28125 0.78125 -1.484375 0.78125 -1.703125 C 0.78125 -2.023438 0.859375 -2.304688 1.015625 -2.546875 C 1.179688 -2.796875 1.453125 -3.09375 1.828125 -3.4375 C 1.453125 -3.71875 1.171875 -4.078125 0.984375 -4.515625 C 0.804688 -4.953125 0.71875 -5.535156 0.71875 -6.265625 C 0.71875 -7.378906 0.945312 -8.222656 1.40625 -8.796875 C 1.863281 -9.378906 2.535156 -9.671875 3.421875 -9.671875 C 3.921875 -9.671875 4.328125 -9.582031 4.640625 -9.40625 C 4.960938 -9.226562 5.207031 -8.960938 5.375 -8.609375 C 5.457031 -8.734375 5.617188 -8.894531 5.859375 -9.09375 C 6.109375 -9.300781 6.378906 -9.472656 6.671875 -9.609375 L 6.9375 -9.71875 L 7.375 -8.578125 C 7.15625 -8.535156 6.847656 -8.441406 6.453125 -8.296875 C 6.066406 -8.148438 5.835938 -8.039062 5.765625 -7.96875 C 5.835938 -7.769531 5.90625 -7.492188 5.96875 -7.140625 C 6.03125 -6.785156 6.0625 -6.476562 6.0625 -6.21875 C 6.0625 -5.175781 5.851562 -4.363281 5.4375 -3.78125 C 5.03125 -3.207031 4.359375 -2.921875 3.421875 -2.921875 C 3.117188 -2.921875 2.816406 -2.957031 2.515625 -3.03125 C 2.296875 -2.726562 2.1875 -2.488281 2.1875 -2.3125 C 2.1875 -2.1875 2.25 -2.085938 2.375 -2.015625 C 2.507812 -1.941406 2.710938 -1.894531 2.984375 -1.875 L 4.46875 -1.75 C 5.21875 -1.6875 5.773438 -1.460938 6.140625 -1.078125 C 6.503906 -0.691406 6.6875 -0.140625 6.6875 0.578125 C 6.6875 2.160156 5.578125 2.953125 3.359375 2.953125 Z M 3.421875 -4.15625 C 3.890625 -4.15625 4.191406 -4.316406 4.328125 -4.640625 C 4.472656 -4.972656 4.546875 -5.515625 4.546875 -6.265625 C 4.546875 -7.023438 4.472656 -7.578125 4.328125 -7.921875 C 4.191406 -8.273438 3.894531 -8.453125 3.4375 -8.453125 C 2.96875 -8.453125 2.65625 -8.273438 2.5 -7.921875 C 2.34375 -7.578125 2.265625 -7.023438 2.265625 -6.265625 C 2.265625 -5.585938 2.34375 -5.066406 2.5 -4.703125 C 2.65625 -4.335938 2.960938 -4.15625 3.421875 -4.15625 Z M 3.5 1.5625 C 4.125 1.5625 4.582031 1.488281 4.875 1.34375 C 5.175781 1.195312 5.328125 0.957031 5.328125 0.625 C 5.328125 0.320312 5.234375 0.0976562 5.046875 -0.046875 C 4.859375 -0.203125 4.519531 -0.300781 4.03125 -0.34375 L 2.53125 -0.484375 C 2.289062 -0.242188 2.109375 -0.0390625 1.984375 0.125 C 1.867188 0.300781 1.8125 0.492188 1.8125 0.703125 C 1.8125 1.003906 1.9375 1.222656 2.1875 1.359375 C 2.4375 1.492188 2.875 1.5625 3.5 1.5625 Z M 3.5 1.5625 "/></g></g></g><g fill="rgb(41.958618%, 41.178894%, 41.178894%)" fill-opacity="1"><g transform="translate(152.862726, 296.50703)"><g><path d="M 3.53125 0.125 C 2.789062 0.125 2.21875 -0.0078125 1.8125 -0.28125 C 1.40625 -0.5625 1.117188 -0.976562 0.953125 -1.53125 C 0.785156 -2.082031 0.703125 -2.796875 0.703125 -3.671875 L 0.703125 -5.859375 C 0.703125 -7.179688 0.910156 -8.144531 1.328125 -8.75 C 1.742188 -9.363281 2.476562 -9.671875 3.53125 -9.671875 C 4.300781 -9.671875 4.878906 -9.507812 5.265625 -9.1875 C 5.660156 -8.875 5.921875 -8.425781 6.046875 -7.84375 C 6.171875 -7.269531 6.234375 -6.492188 6.234375 -5.515625 L 6.234375 -4.734375 L 2.46875 -4.734375 L 2.46875 -2.828125 C 2.46875 -2.242188 2.550781 -1.820312 2.71875 -1.5625 C 2.894531 -1.300781 3.171875 -1.171875 3.546875 -1.171875 C 3.921875 -1.171875 4.171875 -1.300781 4.296875 -1.5625 C 4.429688 -1.820312 4.5 -2.210938 4.5 -2.734375 L 4.5 -3.3125 L 6.21875 -3.3125 L 6.21875 -2.953125 C 6.21875 -1.953125 6.003906 -1.1875 5.578125 -0.65625 C 5.148438 -0.132812 4.46875 0.125 3.53125 0.125 Z M 4.5 -5.6875 L 4.5 -6.546875 C 4.5 -7.203125 4.4375 -7.664062 4.3125 -7.9375 C 4.1875 -8.21875 3.921875 -8.359375 3.515625 -8.359375 C 3.222656 -8.359375 3.003906 -8.289062 2.859375 -8.15625 C 2.710938 -8.03125 2.609375 -7.816406 2.546875 -7.515625 C 2.492188 -7.210938 2.46875 -6.773438 2.46875 -6.203125 L 2.46875 -5.6875 Z M 4.5 -5.6875 "/></g></g></g><g fill="rgb(41.958618%, 41.178894%, 41.178894%)" fill-opacity="1"><g transform="translate(163.109245, 296.50703)"><g><path d="M 0.53125 -1.1875 L 3.453125 -8.21875 L 0.828125 -8.21875 L 0.828125 -9.53125 L 5.34375 -9.53125 L 5.34375 -8.578125 L 2.40625 -1.34375 L 5.28125 -1.34375 L 5.28125 0 L 0.53125 0 Z M 0.53125 -1.1875 "/></g></g></g><g fill="rgb(41.958618%, 41.178894%, 41.178894%)" fill-opacity="1"><g transform="translate(172.134765, 296.50703)"><g/></g></g><g fill="rgb(41.958618%, 41.178894%, 41.178894%)" fill-opacity="1"><g transform="translate(179.213267, 296.50703)"><g><path d="M 0.25 -9.53125 L 2.03125 -9.53125 L 3.203125 -1.859375 L 4.390625 -9.53125 L 6.109375 -9.53125 L 4.296875 0 L 2.125 0 Z M 0.25 -9.53125 "/></g></g></g><g fill="rgb(41.958618%, 41.178894%, 41.178894%)" fill-opacity="1"><g transform="translate(188.865785, 296.50703)"><g><path d="M 3.515625 0.125 C 2.503906 0.125 1.785156 -0.171875 1.359375 -0.765625 C 0.929688 -1.367188 0.71875 -2.238281 0.71875 -3.375 L 0.71875 -6.15625 C 0.71875 -7.300781 0.929688 -8.171875 1.359375 -8.765625 C 1.785156 -9.367188 2.503906 -9.671875 3.515625 -9.671875 C 4.515625 -9.671875 5.222656 -9.367188 5.640625 -8.765625 C 6.066406 -8.171875 6.28125 -7.300781 6.28125 -6.15625 L 6.28125 -3.375 C 6.28125 -2.238281 6.066406 -1.367188 5.640625 -0.765625 C 5.222656 -0.171875 4.515625 0.125 3.515625 0.125 Z M 3.515625 -1.171875 C 3.835938 -1.171875 4.066406 -1.265625 4.203125 -1.453125 C 4.347656 -1.640625 4.4375 -1.867188 4.46875 -2.140625 C 4.5 -2.421875 4.515625 -2.796875 4.515625 -3.265625 L 4.515625 -6.25 C 4.515625 -6.726562 4.5 -7.101562 4.46875 -7.375 C 4.4375 -7.65625 4.347656 -7.890625 4.203125 -8.078125 C 4.066406 -8.265625 3.835938 -8.359375 3.515625 -8.359375 C 3.191406 -8.359375 2.957031 -8.265625 2.8125 -8.078125 C 2.664062 -7.890625 2.570312 -7.65625 2.53125 -7.375 C 2.5 -7.101562 2.484375 -6.726562 2.484375 -6.25 L 2.484375 -3.265625 C 2.484375 -2.796875 2.5 -2.421875 2.53125 -2.140625 C 2.570312 -1.867188 2.664062 -1.640625 2.8125 -1.453125 C 2.957031 -1.265625 3.191406 -1.171875 3.515625 -1.171875 Z M 3.515625 -1.171875 "/></g></g></g><g fill="rgb(41.958618%, 41.178894%, 41.178894%)" fill-opacity="1"><g transform="translate(199.178308, 296.50703)"><g><path d="M 3.4375 0.125 C 2.0625 0.125 1.375 -0.628906 1.375 -2.140625 L 1.375 -8.359375 L 0.359375 -8.359375 L 0.359375 -9.53125 L 1.375 -9.53125 L 1.375 -12.328125 L 3.140625 -12.328125 L 3.140625 -9.53125 L 4.671875 -9.53125 L 4.671875 -8.359375 L 3.140625 -8.359375 L 3.140625 -2.265625 C 3.140625 -1.878906 3.195312 -1.609375 3.3125 -1.453125 C 3.4375 -1.296875 3.671875 -1.21875 4.015625 -1.21875 C 4.234375 -1.21875 4.445312 -1.234375 4.65625 -1.265625 L 4.65625 0.03125 C 4.21875 0.09375 3.8125 0.125 3.4375 0.125 Z M 3.4375 0.125 "/></g></g></g><g fill="rgb(41.958618%, 41.178894%, 41.178894%)" fill-opacity="1"><g transform="translate(207.560315, 296.50703)"><g><path d="M 0.9375 -9.53125 L 2.703125 -9.53125 L 2.703125 -8.1875 C 3.035156 -8.726562 3.375 -9.109375 3.71875 -9.328125 C 4.0625 -9.546875 4.425781 -9.65625 4.8125 -9.65625 C 4.914062 -9.65625 5.007812 -9.648438 5.09375 -9.640625 L 5.09375 -7.6875 C 4.75 -7.820312 4.425781 -7.890625 4.125 -7.890625 C 3.84375 -7.890625 3.585938 -7.816406 3.359375 -7.671875 C 3.128906 -7.535156 2.910156 -7.300781 2.703125 -6.96875 L 2.703125 0 L 0.9375 0 Z M 0.9375 -9.53125 "/></g></g></g><g fill="rgb(41.958618%, 41.178894%, 41.178894%)" fill-opacity="1"><g transform="translate(216.15683, 296.50703)"><g><path d="M 3.53125 0.125 C 2.789062 0.125 2.21875 -0.0078125 1.8125 -0.28125 C 1.40625 -0.5625 1.117188 -0.976562 0.953125 -1.53125 C 0.785156 -2.082031 0.703125 -2.796875 0.703125 -3.671875 L 0.703125 -5.859375 C 0.703125 -7.179688 0.910156 -8.144531 1.328125 -8.75 C 1.742188 -9.363281 2.476562 -9.671875 3.53125 -9.671875 C 4.300781 -9.671875 4.878906 -9.507812 5.265625 -9.1875 C 5.660156 -8.875 5.921875 -8.425781 6.046875 -7.84375 C 6.171875 -7.269531 6.234375 -6.492188 6.234375 -5.515625 L 6.234375 -4.734375 L 2.46875 -4.734375 L 2.46875 -2.828125 C 2.46875 -2.242188 2.550781 -1.820312 2.71875 -1.5625 C 2.894531 -1.300781 3.171875 -1.171875 3.546875 -1.171875 C 3.921875 -1.171875 4.171875 -1.300781 4.296875 -1.5625 C 4.429688 -1.820312 4.5 -2.210938 4.5 -2.734375 L 4.5 -3.3125 L 6.21875 -3.3125 L 6.21875 -2.953125 C 6.21875 -1.953125 6.003906 -1.1875 5.578125 -0.65625 C 5.148438 -0.132812 4.46875 0.125 3.53125 0.125 Z M 4.5 -5.6875 L 4.5 -6.546875 C 4.5 -7.203125 4.4375 -7.664062 4.3125 -7.9375 C 4.1875 -8.21875 3.921875 -8.359375 3.515625 -8.359375 C 3.222656 -8.359375 3.003906 -8.289062 2.859375 -8.15625 C 2.710938 -8.03125 2.609375 -7.816406 2.546875 -7.515625 C 2.492188 -7.210938 2.46875 -6.773438 2.46875 -6.203125 L 2.46875 -5.6875 Z M 4.5 -5.6875 "/></g></g></g><g fill="rgb(41.958618%, 41.178894%, 41.178894%)" fill-opacity="1"><g transform="translate(226.403342, 296.50703)"><g/></g></g><g fill="rgb(41.958618%, 41.178894%, 41.178894%)" fill-opacity="1"><g transform="translate(233.481845, 296.50703)"><g><path d="M 3.53125 0.125 C 2.789062 0.125 2.21875 -0.0078125 1.8125 -0.28125 C 1.40625 -0.5625 1.117188 -0.976562 0.953125 -1.53125 C 0.785156 -2.082031 0.703125 -2.796875 0.703125 -3.671875 L 0.703125 -5.859375 C 0.703125 -7.179688 0.910156 -8.144531 1.328125 -8.75 C 1.742188 -9.363281 2.476562 -9.671875 3.53125 -9.671875 C 4.300781 -9.671875 4.878906 -9.507812 5.265625 -9.1875 C 5.660156 -8.875 5.921875 -8.425781 6.046875 -7.84375 C 6.171875 -7.269531 6.234375 -6.492188 6.234375 -5.515625 L 6.234375 -4.734375 L 2.46875 -4.734375 L 2.46875 -2.828125 C 2.46875 -2.242188 2.550781 -1.820312 2.71875 -1.5625 C 2.894531 -1.300781 3.171875 -1.171875 3.546875 -1.171875 C 3.921875 -1.171875 4.171875 -1.300781 4.296875 -1.5625 C 4.429688 -1.820312 4.5 -2.210938 4.5 -2.734375 L 4.5 -3.3125 L 6.21875 -3.3125 L 6.21875 -2.953125 C 6.21875 -1.953125 6.003906 -1.1875 5.578125 -0.65625 C 5.148438 -0.132812 4.46875 0.125 3.53125 0.125 Z M 4.5 -5.6875 L 4.5 -6.546875 C 4.5 -7.203125 4.4375 -7.664062 4.3125 -7.9375 C 4.1875 -8.21875 3.921875 -8.359375 3.515625 -8.359375 C 3.222656 -8.359375 3.003906 -8.289062 2.859375 -8.15625 C 2.710938 -8.03125 2.609375 -7.816406 2.546875 -7.515625 C 2.492188 -7.210938 2.46875 -6.773438 2.46875 -6.203125 L 2.46875 -5.6875 Z M 4 -13.59375 L 5.765625 -13.59375 L 3.90625 -10.328125 L 3.015625 -10.328125 Z M 4 -13.59375 "/></g></g></g><g fill="rgb(41.958618%, 41.178894%, 41.178894%)" fill-opacity="1"><g transform="translate(243.728357, 296.50703)"><g><path d="M 0.890625 -9.53125 L 2.65625 -9.53125 L 2.65625 -8.78125 C 3.175781 -9.375 3.78125 -9.671875 4.46875 -9.671875 C 5.34375 -9.671875 5.925781 -9.296875 6.21875 -8.546875 C 6.507812 -7.804688 6.65625 -6.988281 6.65625 -6.09375 L 6.65625 -3.78125 C 6.65625 -2.613281 6.472656 -1.671875 6.109375 -0.953125 C 5.753906 -0.234375 5.144531 0.125 4.28125 0.125 C 3.71875 0.125 3.175781 -0.148438 2.65625 -0.703125 L 2.65625 3.140625 L 0.890625 3.140625 Z M 3.921875 -1.25 C 4.328125 -1.25 4.585938 -1.453125 4.703125 -1.859375 C 4.828125 -2.273438 4.890625 -2.914062 4.890625 -3.78125 L 4.890625 -6.09375 C 4.890625 -6.789062 4.820312 -7.328125 4.6875 -7.703125 C 4.550781 -8.085938 4.273438 -8.28125 3.859375 -8.28125 C 3.453125 -8.28125 3.050781 -8.113281 2.65625 -7.78125 L 2.65625 -1.6875 C 3.039062 -1.394531 3.460938 -1.25 3.921875 -1.25 Z M 3.921875 -1.25 "/></g></g></g><g fill="rgb(41.958618%, 41.178894%, 41.178894%)" fill-opacity="1"><g transform="translate(254.387372, 296.50703)"><g><path d="M 2.609375 0.125 C 2.242188 0.125 1.914062 0.0195312 1.625 -0.1875 C 1.332031 -0.394531 1.101562 -0.664062 0.9375 -1 C 0.769531 -1.34375 0.6875 -1.703125 0.6875 -2.078125 C 0.6875 -2.828125 0.847656 -3.4375 1.171875 -3.90625 C 1.492188 -4.375 1.898438 -4.742188 2.390625 -5.015625 C 2.890625 -5.285156 3.578125 -5.597656 4.453125 -5.953125 L 4.453125 -6.640625 C 4.453125 -7.265625 4.390625 -7.703125 4.265625 -7.953125 C 4.140625 -8.210938 3.882812 -8.34375 3.5 -8.34375 C 2.820312 -8.34375 2.484375 -7.894531 2.484375 -7 L 2.484375 -6.515625 L 0.75 -6.578125 C 0.769531 -7.640625 1.007812 -8.421875 1.46875 -8.921875 C 1.925781 -9.421875 2.640625 -9.671875 3.609375 -9.671875 C 4.523438 -9.671875 5.1875 -9.421875 5.59375 -8.921875 C 6.007812 -8.421875 6.21875 -7.664062 6.21875 -6.65625 L 6.21875 -2.296875 C 6.21875 -1.578125 6.273438 -0.8125 6.390625 0 L 4.765625 0 C 4.648438 -0.625 4.570312 -1.09375 4.53125 -1.40625 C 4.40625 -0.976562 4.175781 -0.613281 3.84375 -0.3125 C 3.519531 -0.0195312 3.109375 0.125 2.609375 0.125 Z M 3.296875 -1.390625 C 3.523438 -1.390625 3.75 -1.476562 3.96875 -1.65625 C 4.195312 -1.84375 4.359375 -2.015625 4.453125 -2.171875 L 4.453125 -4.890625 C 3.984375 -4.617188 3.617188 -4.382812 3.359375 -4.1875 C 3.097656 -4 2.878906 -3.78125 2.703125 -3.53125 C 2.535156 -3.28125 2.453125 -2.976562 2.453125 -2.625 C 2.453125 -2.226562 2.523438 -1.921875 2.671875 -1.703125 C 2.816406 -1.492188 3.023438 -1.390625 3.296875 -1.390625 Z M 3.296875 -1.390625 "/></g></g></g><g fill="rgb(41.958618%, 41.178894%, 41.178894%)" fill-opacity="1"><g transform="translate(264.716385, 296.50703)"><g><path d="M 0.9375 -9.53125 L 2.703125 -9.53125 L 2.703125 -8.1875 C 3.035156 -8.726562 3.375 -9.109375 3.71875 -9.328125 C 4.0625 -9.546875 4.425781 -9.65625 4.8125 -9.65625 C 4.914062 -9.65625 5.007812 -9.648438 5.09375 -9.640625 L 5.09375 -7.6875 C 4.75 -7.820312 4.425781 -7.890625 4.125 -7.890625 C 3.84375 -7.890625 3.585938 -7.816406 3.359375 -7.671875 C 3.128906 -7.535156 2.910156 -7.300781 2.703125 -6.96875 L 2.703125 0 L 0.9375 0 Z M 0.9375 -9.53125 "/></g></g></g><g fill="rgb(41.958618%, 41.178894%, 41.178894%)" fill-opacity="1"><g transform="translate(273.3129, 296.50703)"><g><path d="M 3.359375 2.953125 C 2.441406 2.953125 1.707031 2.804688 1.15625 2.515625 C 0.601562 2.222656 0.328125 1.769531 0.328125 1.15625 C 0.328125 0.738281 0.457031 0.375 0.71875 0.0625 C 0.976562 -0.238281 1.304688 -0.484375 1.703125 -0.671875 C 1.398438 -0.765625 1.171875 -0.90625 1.015625 -1.09375 C 0.859375 -1.28125 0.78125 -1.484375 0.78125 -1.703125 C 0.78125 -2.023438 0.859375 -2.304688 1.015625 -2.546875 C 1.179688 -2.796875 1.453125 -3.09375 1.828125 -3.4375 C 1.453125 -3.71875 1.171875 -4.078125 0.984375 -4.515625 C 0.804688 -4.953125 0.71875 -5.535156 0.71875 -6.265625 C 0.71875 -7.378906 0.945312 -8.222656 1.40625 -8.796875 C 1.863281 -9.378906 2.535156 -9.671875 3.421875 -9.671875 C 3.921875 -9.671875 4.328125 -9.582031 4.640625 -9.40625 C 4.960938 -9.226562 5.207031 -8.960938 5.375 -8.609375 C 5.457031 -8.734375 5.617188 -8.894531 5.859375 -9.09375 C 6.109375 -9.300781 6.378906 -9.472656 6.671875 -9.609375 L 6.9375 -9.71875 L 7.375 -8.578125 C 7.15625 -8.535156 6.847656 -8.441406 6.453125 -8.296875 C 6.066406 -8.148438 5.835938 -8.039062 5.765625 -7.96875 C 5.835938 -7.769531 5.90625 -7.492188 5.96875 -7.140625 C 6.03125 -6.785156 6.0625 -6.476562 6.0625 -6.21875 C 6.0625 -5.175781 5.851562 -4.363281 5.4375 -3.78125 C 5.03125 -3.207031 4.359375 -2.921875 3.421875 -2.921875 C 3.117188 -2.921875 2.816406 -2.957031 2.515625 -3.03125 C 2.296875 -2.726562 2.1875 -2.488281 2.1875 -2.3125 C 2.1875 -2.1875 2.25 -2.085938 2.375 -2.015625 C 2.507812 -1.941406 2.710938 -1.894531 2.984375 -1.875 L 4.46875 -1.75 C 5.21875 -1.6875 5.773438 -1.460938 6.140625 -1.078125 C 6.503906 -0.691406 6.6875 -0.140625 6.6875 0.578125 C 6.6875 2.160156 5.578125 2.953125 3.359375 2.953125 Z M 3.421875 -4.15625 C 3.890625 -4.15625 4.191406 -4.316406 4.328125 -4.640625 C 4.472656 -4.972656 4.546875 -5.515625 4.546875 -6.265625 C 4.546875 -7.023438 4.472656 -7.578125 4.328125 -7.921875 C 4.191406 -8.273438 3.894531 -8.453125 3.4375 -8.453125 C 2.96875 -8.453125 2.65625 -8.273438 2.5 -7.921875 C 2.34375 -7.578125 2.265625 -7.023438 2.265625 -6.265625 C 2.265625 -5.585938 2.34375 -5.066406 2.5 -4.703125 C 2.65625 -4.335938 2.960938 -4.15625 3.421875 -4.15625 Z M 3.5 1.5625 C 4.125 1.5625 4.582031 1.488281 4.875 1.34375 C 5.175781 1.195312 5.328125 0.957031 5.328125 0.625 C 5.328125 0.320312 5.234375 0.0976562 5.046875 -0.046875 C 4.859375 -0.203125 4.519531 -0.300781 4.03125 -0.34375 L 2.53125 -0.484375 C 2.289062 -0.242188 2.109375 -0.0390625 1.984375 0.125 C 1.867188 0.300781 1.8125 0.492188 1.8125 0.703125 C 1.8125 1.003906 1.9375 1.222656 2.1875 1.359375 C 2.4375 1.492188 2.875 1.5625 3.5 1.5625 Z M 3.5 1.5625 "/></g></g></g><g fill="rgb(41.958618%, 41.178894%, 41.178894%)" fill-opacity="1"><g transform="translate(283.790424, 296.50703)"><g><path d="M 0.890625 -9.53125 L 2.65625 -9.53125 L 2.65625 -8.59375 C 3.414062 -9.3125 4.191406 -9.671875 4.984375 -9.671875 C 5.503906 -9.671875 5.875 -9.484375 6.09375 -9.109375 C 6.3125 -8.734375 6.421875 -8.269531 6.421875 -7.71875 L 6.421875 0 L 4.65625 0 L 4.65625 -7.203125 C 4.65625 -7.566406 4.597656 -7.835938 4.484375 -8.015625 C 4.378906 -8.191406 4.179688 -8.28125 3.890625 -8.28125 C 3.535156 -8.28125 3.125 -8.082031 2.65625 -7.6875 L 2.65625 0 L 0.890625 0 Z M 0.890625 -9.53125 "/></g></g></g><g fill="rgb(41.958618%, 41.178894%, 41.178894%)" fill-opacity="1"><g transform="translate(294.333956, 296.50703)"><g><path d="M 3.53125 0.125 C 2.789062 0.125 2.21875 -0.0078125 1.8125 -0.28125 C 1.40625 -0.5625 1.117188 -0.976562 0.953125 -1.53125 C 0.785156 -2.082031 0.703125 -2.796875 0.703125 -3.671875 L 0.703125 -5.859375 C 0.703125 -7.179688 0.910156 -8.144531 1.328125 -8.75 C 1.742188 -9.363281 2.476562 -9.671875 3.53125 -9.671875 C 4.300781 -9.671875 4.878906 -9.507812 5.265625 -9.1875 C 5.660156 -8.875 5.921875 -8.425781 6.046875 -7.84375 C 6.171875 -7.269531 6.234375 -6.492188 6.234375 -5.515625 L 6.234375 -4.734375 L 2.46875 -4.734375 L 2.46875 -2.828125 C 2.46875 -2.242188 2.550781 -1.820312 2.71875 -1.5625 C 2.894531 -1.300781 3.171875 -1.171875 3.546875 -1.171875 C 3.921875 -1.171875 4.171875 -1.300781 4.296875 -1.5625 C 4.429688 -1.820312 4.5 -2.210938 4.5 -2.734375 L 4.5 -3.3125 L 6.21875 -3.3125 L 6.21875 -2.953125 C 6.21875 -1.953125 6.003906 -1.1875 5.578125 -0.65625 C 5.148438 -0.132812 4.46875 0.125 3.53125 0.125 Z M 4.5 -5.6875 L 4.5 -6.546875 C 4.5 -7.203125 4.4375 -7.664062 4.3125 -7.9375 C 4.1875 -8.21875 3.921875 -8.359375 3.515625 -8.359375 C 3.222656 -8.359375 3.003906 -8.289062 2.859375 -8.15625 C 2.710938 -8.03125 2.609375 -7.816406 2.546875 -7.515625 C 2.492188 -7.210938 2.46875 -6.773438 2.46875 -6.203125 L 2.46875 -5.6875 Z M 4.5 -5.6875 "/></g></g></g></svg>